<?xml version="1.0" encoding="UTF-8"?>
<!DOCTYPE svg PUBLIC "-//W3C//DTD SVG 1.1//EN" "http://www.w3.org/Graphics/SVG/1.1/DTD/svg11.dtd">
<!-- Creator: CorelDRAW -->
<svg xmlns="http://www.w3.org/2000/svg" xml:space="preserve" width="180mm" height="100mm" style="shape-rendering:geometricPrecision; text-rendering:geometricPrecision; image-rendering:optimizeQuality; fill-rule:evenodd; clip-rule:evenodd"
viewBox="0 0 180 100"
 xmlns:xlink="http://www.w3.org/1999/xlink">
 <defs>
  <style type="text/css">
   <![CDATA[
    .str1 {stroke:#1F1A17;stroke-width:0.1763}
    .str0 {stroke:#1F1A17;stroke-width:0.3527}
    .fil3 {fill:none}
    .fil1 {fill:#4D485B}
    .fil0 {fill:#75C5F0}
    .fil4 {fill:white}
    .fil5 {fill:#1F1A17;fill-rule:nonzero}
    .fil2 {fill:#DA251D;fill-rule:nonzero}
   ]]>
  </style>
    <mask id="id0">
  <radialGradient id="id1" gradientUnits="userSpaceOnUse" cx="46.3119" cy="64.6477" r="18.8118" fx="46.3119" fy="64.6477">
   <stop offset="0" style="stop-opacity:0; stop-color:white"/>
   <stop offset="1" style="stop-opacity:1; stop-color:white"/>
  </radialGradient>
     <rect style="fill:url(#id1)" x="31.777" y="51.4487" width="44.0018" height="36.0897"/>
    </mask>
    <mask id="id2">
  <radialGradient id="id3" gradientUnits="userSpaceOnUse" cx="6.5695" cy="14.8661" r="13.2879" fx="6.5695" fy="14.8661">
   <stop offset="0" style="stop-opacity:0; stop-color:white"/>
   <stop offset="1" style="stop-opacity:1; stop-color:white"/>
  </radialGradient>
     <rect style="fill:url(#id3)" x="20.0097" y="16.1559" width="98.2469" height="11.6305"/>
    </mask>
    <mask id="id4">
  <radialGradient id="id5" gradientUnits="userSpaceOnUse" cx="128.178" cy="63.9723" r="18.4114" fx="128.178" fy="63.9723">
   <stop offset="0" style="stop-opacity:0; stop-color:white"/>
   <stop offset="1" style="stop-opacity:1; stop-color:white"/>
  </radialGradient>
     <rect style="fill:url(#id5)" x="112.773" y="49.1691" width="42.2762" height="36.2216"/>
    </mask>
 </defs>
 <g id="Warstwa_x0020_1">
  <metadata id="CorelCorpID_0Corel-Layer"/>
  <g id="_55680344">
   <path id="_90695576" class="fil0" style="mask:url(#id0)" d="M53.7779 51.5368c12.1,0 21.9128,8.0412 21.9128,17.9567 0,9.9156 -9.8128,17.9568 -21.9128,17.9568 -12.1,0 -21.9128,-8.0412 -21.9128,-17.9568 0,-9.9155 9.8128,-17.9567 21.9128,-17.9567z"/>
   <path id="_90721480" class="fil0" style="mask:url(#id2)" d="M69.1332 16.244c32.3008,0.17 53.348,11.4543 48.2884,11.4543l-96.5769 0c-5.0596,0 15.9877,-11.6243 48.2885,-11.4543z"/>
   <rect id="_55732568" class="fil1" x="19.3763" y="85.1002" width="140" height="5.2208"/>
   <rect id="_35640360" class="fil1" x="18.017" y="26.7307" width="140" height="5.12"/>
   <path id="_35631304" class="fil0" style="mask:url(#id4)" d="M133.911 49.2572c11.6236,0 21.05,8.0707 21.05,18.0227 0,9.952 -9.4264,18.0227 -21.05,18.0227 -11.6236,0 -21.05,-8.0707 -21.05,-18.0227 0,-9.952 9.4264,-18.0227 21.05,-18.0227z"/>
   <g>
    <path id="_91764216" class="fil2" d="M160.497 27.2418l-42.8592 0 0 -1.0542 42.8592 0 0 1.0542zm2.0435 -0.5271l-5.1575 1.7759 0.0669 -0.111 0.0626 -0.111 0.0583 -0.111 0.054 -0.111 0.0496 -0.111 0.0453 -0.111 0.0411 -0.1109 0.0367 -0.111 0.0323 -0.111 0.0281 -0.111 0.0237 -0.111 0.0195 -0.111 0.0151 -0.111 0.0108 -0.111 0.0064 -0.111 0.0022 -0.111 -0.0022 -0.111 -0.0064 -0.111 -0.0108 -0.111 -0.0151 -0.111 -0.0195 -0.111 -0.0237 -0.111 -0.0281 -0.111 -0.0323 -0.111 -0.0367 -0.111 -0.0411 -0.1109 -0.0453 -0.111 -0.0496 -0.111 -0.054 -0.111 -0.0583 -0.111 -0.0626 -0.111 -0.0669 -0.111 0 0 5.1575 1.7759z"/>
   </g>
   <g>
    <path class="fil2" d="M83.578 85.6639l-17.8507 0 0 -1.0584 17.8507 0 0 1.0584zm2.0516 -0.5292l-5.178 1.783 0.0672 -0.1114 0.0628 -0.1115 0.0585 -0.1114 0.0542 -0.1115 0.0498 -0.1114 0.0456 -0.1114 0.0411 -0.1115 0.0369 -0.1114 0.0325 -0.1114 0.0281 -0.1115 0.0239 -0.1114 0.0195 -0.1115 0.0152 -0.1114 0.0108 -0.1114 0.0065 -0.1115 0.0022 -0.1114 -0.0022 -0.1114 -0.0065 -0.1115 -0.0108 -0.1114 -0.0152 -0.1114 -0.0195 -0.1115 -0.0239 -0.1114 -0.0281 -0.1115 -0.0325 -0.1114 -0.0369 -0.1114 -0.0411 -0.1115 -0.0456 -0.1114 -0.0498 -0.1114 -0.0542 -0.1115 -0.0585 -0.1114 -0.0628 -0.1115 -0.0672 -0.1114 0 0 5.178 1.783z"/>
   </g>
   <path class="fil3 str0" d="M101.269 26.7265c0,-0.0903 -0.002,-0.1864 -0.002,-0.2786 0,-2.8818 0.7769,-5.7166 2.2462,-8.1943"/>
   <g>
    <path class="fil2" d="M94.9364 26.1855l22.8507 0 0 1.0584 -22.8507 0 0 -1.0584zm-2.0516 0.5292l5.178 -1.783 -0.0672 0.1114 -0.0628 0.1115 -0.0585 0.1114 -0.0542 0.1115 -0.0498 0.1114 -0.0456 0.1114 -0.0411 0.1115 -0.0369 0.1114 -0.0325 0.1114 -0.0281 0.1115 -0.0239 0.1114 -0.0195 0.1115 -0.0152 0.1114 -0.0108 0.1114 -0.0065 0.1115 -0.0022 0.1114 0.0022 0.1114 0.0065 0.1115 0.0108 0.1114 0.0152 0.1114 0.0195 0.1115 0.0239 0.1114 0.0281 0.1115 0.0325 0.1114 0.0369 0.1114 0.0411 0.1115 0.0456 0.1114 0.0498 0.1114 0.0542 0.1115 0.0585 0.1114 0.0628 0.1115 0.0672 0.1114 0 0 -5.178 -1.783z"/>
   </g>
   <g>
    <path class="fil2" d="M29.5007 84.6055l35.8507 0 0 1.0584 -35.8507 0 0 -1.0584zm-2.0516 0.5292l5.178 -1.783 -0.0672 0.1114 -0.0628 0.1115 -0.0585 0.1114 -0.0542 0.1115 -0.0498 0.1114 -0.0456 0.1114 -0.0411 0.1115 -0.0369 0.1114 -0.0325 0.1114 -0.0281 0.1115 -0.0239 0.1114 -0.0195 0.1115 -0.0152 0.1114 -0.0108 0.1114 -0.0065 0.1115 -0.0022 0.1114 0.0022 0.1114 0.0065 0.1115 0.0108 0.1114 0.0152 0.1114 0.0195 0.1115 0.0239 0.1114 0.0281 0.1115 0.0325 0.1114 0.0369 0.1114 0.0411 0.1115 0.0456 0.1114 0.0498 0.1114 0.0542 0.1115 0.0585 0.1114 0.0628 0.1115 0.0672 0.1114 0 0 -5.178 -1.783z"/>
   </g>
   <g>
    <path class="fil2" d="M99.4497 15.2305l18.1548 10.7627 -0.5374 0.9094 -18.1548 -10.7627 0.5374 -0.9094zm-2.03 -0.5895l5.3527 1.1046 -0.1144 0.0615 -0.1106 0.0637 -0.107 0.0659 -0.1032 0.0681 -0.0995 0.0703 -0.0958 0.0725 -0.0921 0.0747 -0.0883 0.0769 -0.0846 0.0792 -0.0809 0.0813 -0.0772 0.0835 -0.0735 0.0858 -0.0697 0.0879 -0.066 0.0902 -0.0623 0.0923 -0.0586 0.0946 -0.0549 0.0968 -0.0511 0.0989 -0.0474 0.1012 -0.0437 0.1034 -0.04 0.1056 -0.0362 0.1078 -0.0325 0.11 -0.0289 0.1122 -0.025 0.1144 -0.0214 0.1167 -0.0177 0.1188 -0.0139 0.121 -0.0102 0.1233 -0.0065 0.1254 -0.0027 0.1277 0.0009 0.1298 0 0 -3.5378 -4.166z"/>
   </g>
   <circle class="fil4 str1" cx="117.335" cy="26.6192" r="0.6796"/>
   <path class="fil5" d="M107.965 15.2382l0.0358 0.0254c0.1496,-0.2117 0.333,-0.4488 0.5512,-0.7112 0.2042,-0.2465 0.3575,-0.4412 0.461,-0.5842 0.1025,-0.144 0.1797,-0.2832 0.2324,-0.4196 0.0527,-0.1355 0.079,-0.2521 0.079,-0.35 0,-0.0602 -0.016,-0.1542 -0.047,-0.2803l0.0329 -0.064c0.1891,-0.0827 0.3151,-0.1241 0.3772,-0.1241 0.0386,0 0.064,0.016 0.0743,0.047 0.0113,0.031 0.017,0.0724 0.017,0.1242 0,0.0959 -0.0273,0.2135 -0.0809,0.3537 -0.0546,0.1411 -0.1355,0.285 -0.2427,0.4327 -0.1082,0.1487 -0.2719,0.3453 -0.4921,0.5917 -0.2003,0.2221 -0.4148,0.4723 -0.6434,0.7508 -0.2286,0.2784 -0.3744,0.46 -0.4375,0.5446 -0.0197,0.1101 -0.0752,0.3199 -0.1646,0.6284 -0.0903,0.3086 -0.1505,0.5024 -0.1797,0.5814 -0.1232,0.0602 -0.237,0.1016 -0.3414,0.1242 -0.0273,-0.0423 -0.0527,-0.0865 -0.0744,-0.1326 0.0386,-0.0969 0.1374,-0.302 0.2973,-0.6134 0.1599,-0.3114 0.2822,-0.5193 0.3669,-0.6237 0.0847,-0.4798 0.127,-0.9492 0.127,-1.4083 0,-0.3697 -0.0536,-0.6416 -0.159,-0.8175 -0.1054,-0.1759 -0.2521,-0.2634 -0.4393,-0.2634 -0.0979,0 -0.1788,0.0198 -0.2437,0.0593 -0.0658,0.0395 -0.1354,0.1035 -0.2088,0.1919l-0.0358 0.0056 -0.0301 -0.0254 0 -0.0357c0.1383,-0.2183 0.2653,-0.3641 0.3829,-0.4365 0.1176,-0.0725 0.2418,-0.1091 0.3725,-0.1091 0.2239,0 0.3848,0.0865 0.4817,0.2605 0.0978,0.1741 0.1468,0.4356 0.1468,0.7865 0,0.2267 -0.017,0.4544 -0.0508,0.6839 -0.0348,0.2295 -0.0894,0.4986 -0.1647,0.8072z"/>
   <path id="1" class="fil5" d="M110.123 17.0768l-0.0169 -0.0141 0.0113 -0.0889 0.0155 -0.0169c0.0776,-0.0127 0.1228,-0.024 0.1355,-0.031 0.0112,-0.0071 0.0254,-0.0198 0.0395,-0.0396 0.0141,-0.0183 0.031,-0.062 0.0494,-0.1312 0.0169,-0.0691 0.062,-0.3006 0.1354,-0.6929l0.127 -0.7069 0.0734 -0.453c0.0466,-0.3076 0.0691,-0.4826 0.0691,-0.5249 0,-0.0353 -0.007,-0.0607 -0.0225,-0.0734 -0.0141,-0.0127 -0.0424,-0.0212 -0.0847,-0.0268 -0.0437,-0.0042 -0.1185,-0.0085 -0.2258,-0.0127l-0.0141 -0.0198 0.0099 -0.086 0.0212 -0.017c0.1679,0.0113 0.3725,0.017 0.6152,0.017 0.182,0 0.3246,-0.0057 0.4276,-0.017l0.0169 0.017 -0.0099 0.0889 -0.0169 0.0183c-0.1679,0.0141 -0.2611,0.024 -0.278,0.0296 -0.0169,0.0043 -0.031,0.0127 -0.0409,0.0226 -0.0113,0.0113 -0.0198,0.0268 -0.0268,0.0494 -0.0198,0.0564 -0.0607,0.2512 -0.1214,0.5828l-0.2483 1.4577c-0.0325,0.2088 -0.0508,0.3654 -0.0551,0.4713 0.1538,0.0155 0.2978,0.024 0.429,0.024 0.175,0 0.3147,-0.0028 0.4177,-0.0071 0.103,-0.0042 0.1863,-0.0127 0.2455,-0.024 0.0607,-0.0113 0.0988,-0.0211 0.1129,-0.031 0.0155,-0.0113 0.0282,-0.0254 0.0381,-0.0438 0.0113,-0.0169 0.0282,-0.0649 0.0522,-0.1439l0.0762 -0.2667 0.0184 -0.0169 0.0889 0 0.0169 0.0183c-0.0522,0.3246 -0.0847,0.5489 -0.0974,0.6731l-0.0183 0.0155 -0.7296 -0.0084 -0.9525 -0.0057c-0.0959,0 -0.1905,0.0043 -0.2836,0.0141z"/>
   <path id="12" class="fil5" d="M114.972 16.8835l-0.0184 0.0311c-0.0465,0.0028 -0.1326,0.0268 -0.2568,0.0691 -0.1891,0.0635 -0.3344,0.1073 -0.4374,0.1298 -0.1016,0.0226 -0.2202,0.0339 -0.3542,0.0339 -0.2893,0 -0.5306,-0.0508 -0.7268,-0.151 -0.1947,-0.1002 -0.3386,-0.2427 -0.4304,-0.4276 -0.0931,-0.1848 -0.1382,-0.3951 -0.1382,-0.6307 0,-0.2625 0.0451,-0.5137 0.134,-0.7507 0.0889,-0.2385 0.2244,-0.4403 0.4036,-0.6054 0.1792,-0.1651 0.3683,-0.2879 0.5673,-0.3669 0.1989,-0.079 0.4177,-0.1185 0.6575,-0.1185 0.2921,0 0.5744,0.055 0.8439,0.1637l0.0085 0.0225c-0.0494,0.1482 -0.0904,0.3443 -0.12,0.5871l-0.0169 0.0169 -0.0861 0 -0.0169 -0.0169c0,-0.1002 -0.0057,-0.2188 -0.0141,-0.3542 -0.0734,-0.0621 -0.1793,-0.1115 -0.319,-0.1482 -0.1397,-0.0381 -0.2808,-0.0564 -0.4261,-0.0564 -0.2371,0 -0.4487,0.0564 -0.635,0.1679 -0.1863,0.1115 -0.3345,0.2921 -0.4431,0.5433 -0.1073,0.2511 -0.1623,0.5235 -0.1623,0.817 0,0.1651 0.0212,0.3203 0.0607,0.4642 0.0395,0.144 0.1115,0.2682 0.2131,0.374 0.103,0.1058 0.2201,0.1778 0.3513,0.2173 0.1313,0.0381 0.2738,0.0579 0.4276,0.0579 0.2272,0 0.4191,-0.0438 0.5772,-0.1341l0.0762 -0.405c0.0211,-0.1171 0.031,-0.1961 0.031,-0.2356 0,-0.0353 -0.0113,-0.0635 -0.0339,-0.0819 -0.0211,-0.0183 -0.0762,-0.031 -0.1622,-0.0353l-0.2823 -0.024 -0.0155 -0.0155 0.0127 -0.0917 0.0198 -0.0155 0.0719 0.0014c0.2427,0.0085 0.4008,0.0127 0.4742,0.0127 0.1538,0 0.3189,-0.0028 0.4939,-0.0071l0.0141 0.017 -0.0085 0.0804 -0.0155 0.0183c-0.0861,0.0156 -0.1397,0.0283 -0.1623,0.0381 -0.0226,0.0099 -0.0395,0.0212 -0.048,0.0367 -0.0084,0.0156 -0.0211,0.0579 -0.0367,0.127l-0.024 0.1172c-0.0112,0.0536 -0.0239,0.1326 -0.0395,0.2356 -0.0155,0.103 -0.0225,0.1778 -0.0225,0.223 0,0.0211 0.0042,0.0437 0.0141,0.0691z"/>
   <path class="fil5" d="M143.043 22.5643l0.0358 0.0254c0.1496,-0.2117 0.333,-0.4488 0.5512,-0.7112 0.2042,-0.2465 0.3575,-0.4412 0.461,-0.5842 0.1025,-0.144 0.1797,-0.2832 0.2324,-0.4196 0.0527,-0.1355 0.079,-0.2521 0.079,-0.35 0,-0.0602 -0.016,-0.1542 -0.047,-0.2803l0.0329 -0.064c0.1891,-0.0827 0.3151,-0.1241 0.3772,-0.1241 0.0386,0 0.064,0.016 0.0743,0.047 0.0113,0.031 0.017,0.0724 0.017,0.1242 0,0.0959 -0.0273,0.2135 -0.0809,0.3537 -0.0546,0.1411 -0.1355,0.285 -0.2427,0.4327 -0.1082,0.1487 -0.2719,0.3453 -0.4921,0.5917 -0.2003,0.2221 -0.4148,0.4723 -0.6434,0.7508 -0.2286,0.2784 -0.3744,0.46 -0.4375,0.5446 -0.0197,0.1101 -0.0752,0.3199 -0.1646,0.6284 -0.0903,0.3086 -0.1505,0.5024 -0.1797,0.5814 -0.1232,0.0602 -0.237,0.1016 -0.3414,0.1242 -0.0273,-0.0423 -0.0527,-0.0865 -0.0744,-0.1326 0.0386,-0.0969 0.1374,-0.302 0.2973,-0.6134 0.1599,-0.3114 0.2822,-0.5193 0.3669,-0.6237 0.0847,-0.4798 0.127,-0.9492 0.127,-1.4083 0,-0.3697 -0.0536,-0.6416 -0.159,-0.8175 -0.1054,-0.1759 -0.2521,-0.2634 -0.4393,-0.2634 -0.0979,0 -0.1788,0.0198 -0.2437,0.0593 -0.0658,0.0395 -0.1354,0.1035 -0.2088,0.1919l-0.0358 0.0056 -0.0301 -0.0254 0 -0.0357c0.1383,-0.2183 0.2653,-0.3641 0.3829,-0.4365 0.1176,-0.0725 0.2418,-0.1091 0.3725,-0.1091 0.2239,0 0.3848,0.0865 0.4817,0.2605 0.0978,0.1741 0.1468,0.4356 0.1468,0.7865 0,0.2267 -0.017,0.4544 -0.0508,0.6839 -0.0348,0.2295 -0.0894,0.4986 -0.1647,0.8072z"/>
   <path id="1" class="fil5" d="M145.307 24.2943c0.048,-0.182 0.0819,-0.3838 0.1016,-0.604l0.0198 -0.0183 0.0875 0 0.0141 0.0155 0.0085 0.3979c0.1016,0.0805 0.1989,0.1327 0.2921,0.1553 0.0931,0.0225 0.1806,0.0338 0.2638,0.0338 0.247,0 0.4319,-0.0705 0.5532,-0.2116 0.1228,-0.1412 0.1849,-0.302 0.1849,-0.4826 0,-0.0918 -0.0184,-0.1708 -0.0565,-0.2357 -0.0367,-0.0649 -0.0861,-0.1129 -0.1467,-0.1439 -0.0621,-0.0325 -0.175,-0.0664 -0.3401,-0.1045 -0.1905,-0.0423 -0.3316,-0.0874 -0.4219,-0.134 -0.0918,-0.0466 -0.1623,-0.1171 -0.2117,-0.2089 -0.0494,-0.0931 -0.0734,-0.2074 -0.0734,-0.34 0,-0.1962 0.0536,-0.3697 0.1623,-0.5207 0.1086,-0.151 0.2469,-0.2667 0.4134,-0.3472 0.1666,-0.0804 0.3528,-0.1213 0.5589,-0.1213 0.2003,0 0.3725,0.0437 0.5164,0.1284l0.0085 0.0254c-0.0339,0.1355 -0.0649,0.3147 -0.0931,0.539l-0.017 0.017 -0.0903 0 -0.0169 -0.017 0 -0.3034c-0.1073,-0.127 -0.2667,-0.1905 -0.4798,-0.1905 -0.1256,0 -0.2385,0.0269 -0.3401,0.0791 -0.1016,0.0536 -0.1792,0.1312 -0.2371,0.2314 -0.0564,0.1016 -0.0846,0.2131 -0.0846,0.333 0,0.1058 0.0211,0.1947 0.0635,0.2653 0.0423,0.0706 0.1002,0.1228 0.1735,0.1552 0.0734,0.0339 0.2004,0.0706 0.3768,0.1129 0.1468,0.0325 0.2498,0.0593 0.3119,0.0819 0.0607,0.0225 0.1199,0.0578 0.1778,0.1086 0.0564,0.0508 0.1002,0.1115 0.1312,0.182 0.0296,0.0706 0.0452,0.1539 0.0452,0.2484 0,0.199 -0.0607,0.3782 -0.1807,0.5362 -0.1199,0.1581 -0.2652,0.2851 -0.4346,0.3796 -0.1679,0.0946 -0.3697,0.1411 -0.6039,0.1411 -0.2244,0 -0.4347,-0.0536 -0.628,-0.1594l-0.0085 -0.024z"/>
   <path id="12" class="fil5" d="M150.048 24.2096l-0.0184 0.0311c-0.0465,0.0028 -0.1326,0.0268 -0.2568,0.0691 -0.1891,0.0635 -0.3344,0.1073 -0.4374,0.1298 -0.1016,0.0226 -0.2202,0.0339 -0.3542,0.0339 -0.2893,0 -0.5306,-0.0508 -0.7268,-0.151 -0.1947,-0.1002 -0.3386,-0.2427 -0.4304,-0.4276 -0.0931,-0.1848 -0.1382,-0.3951 -0.1382,-0.6307 0,-0.2625 0.0451,-0.5137 0.134,-0.7507 0.0889,-0.2385 0.2244,-0.4403 0.4036,-0.6054 0.1792,-0.1651 0.3683,-0.2879 0.5673,-0.3669 0.1989,-0.079 0.4177,-0.1185 0.6575,-0.1185 0.2921,0 0.5744,0.055 0.8439,0.1637l0.0085 0.0225c-0.0494,0.1482 -0.0904,0.3443 -0.12,0.5871l-0.0169 0.0169 -0.0861 0 -0.0169 -0.0169c0,-0.1002 -0.0057,-0.2188 -0.0141,-0.3542 -0.0734,-0.0621 -0.1793,-0.1115 -0.319,-0.1482 -0.1397,-0.0381 -0.2808,-0.0564 -0.4261,-0.0564 -0.2371,0 -0.4487,0.0564 -0.635,0.1679 -0.1863,0.1115 -0.3345,0.2921 -0.4431,0.5433 -0.1073,0.2511 -0.1623,0.5235 -0.1623,0.817 0,0.1651 0.0212,0.3203 0.0607,0.4642 0.0395,0.144 0.1115,0.2682 0.2131,0.374 0.103,0.1058 0.2201,0.1778 0.3513,0.2173 0.1313,0.0381 0.2738,0.0579 0.4276,0.0579 0.2272,0 0.4191,-0.0438 0.5772,-0.1341l0.0762 -0.405c0.0211,-0.1171 0.031,-0.1961 0.031,-0.2356 0,-0.0353 -0.0113,-0.0635 -0.0339,-0.0819 -0.0211,-0.0183 -0.0762,-0.031 -0.1622,-0.0353l-0.2823 -0.024 -0.0155 -0.0155 0.0127 -0.0917 0.0198 -0.0155 0.0719 0.0014c0.2427,0.0085 0.4008,0.0127 0.4742,0.0127 0.1538,0 0.3189,-0.0028 0.4939,-0.0071l0.0141 0.017 -0.0085 0.0804 -0.0155 0.0183c-0.0861,0.0156 -0.1397,0.0283 -0.1623,0.0381 -0.0226,0.0099 -0.0395,0.0212 -0.048,0.0367 -0.0084,0.0156 -0.0211,0.0579 -0.0367,0.127l-0.024 0.1172c-0.0112,0.0536 -0.0239,0.1326 -0.0395,0.2356 -0.0155,0.103 -0.0225,0.1778 -0.0225,0.223 0,0.0211 0.0042,0.0437 0.0141,0.0691z"/>
   <path class="fil5" d="M87.6709 23.5803l0.0358 0.0254c0.1496,-0.2117 0.333,-0.4488 0.5512,-0.7112 0.2042,-0.2465 0.3575,-0.4412 0.461,-0.5842 0.1025,-0.144 0.1797,-0.2832 0.2324,-0.4196 0.0527,-0.1355 0.079,-0.2521 0.079,-0.35 0,-0.0602 -0.016,-0.1542 -0.047,-0.2803l0.0329 -0.064c0.1891,-0.0827 0.3151,-0.1241 0.3772,-0.1241 0.0386,0 0.064,0.016 0.0743,0.047 0.0113,0.031 0.017,0.0724 0.017,0.1242 0,0.0959 -0.0273,0.2135 -0.0809,0.3537 -0.0546,0.1411 -0.1355,0.285 -0.2427,0.4327 -0.1082,0.1487 -0.2719,0.3453 -0.4921,0.5917 -0.2003,0.2221 -0.4148,0.4723 -0.6434,0.7508 -0.2286,0.2784 -0.3744,0.46 -0.4375,0.5446 -0.0197,0.1101 -0.0752,0.3199 -0.1646,0.6284 -0.0903,0.3086 -0.1505,0.5024 -0.1797,0.5814 -0.1232,0.0602 -0.237,0.1016 -0.3414,0.1242 -0.0273,-0.0423 -0.0527,-0.0865 -0.0744,-0.1326 0.0386,-0.0969 0.1374,-0.302 0.2973,-0.6134 0.1599,-0.3114 0.2822,-0.5193 0.3669,-0.6237 0.0847,-0.4798 0.127,-0.9492 0.127,-1.4083 0,-0.3697 -0.0536,-0.6416 -0.159,-0.8175 -0.1054,-0.1759 -0.2521,-0.2634 -0.4393,-0.2634 -0.0979,0 -0.1788,0.0198 -0.2437,0.0593 -0.0658,0.0395 -0.1354,0.1035 -0.2088,0.1919l-0.0358 0.0056 -0.0301 -0.0254 0 -0.0357c0.1383,-0.2183 0.2653,-0.3641 0.3829,-0.4365 0.1176,-0.0725 0.2418,-0.1091 0.3725,-0.1091 0.2239,0 0.3848,0.0865 0.4817,0.2605 0.0978,0.1741 0.1468,0.4356 0.1468,0.7865 0,0.2267 -0.017,0.4544 -0.0508,0.6839 -0.0348,0.2295 -0.0894,0.4986 -0.1647,0.8072z"/>
   <path id="1" class="fil5" d="M89.9348 25.3103c0.048,-0.182 0.0819,-0.3838 0.1016,-0.604l0.0198 -0.0183 0.0875 0 0.0141 0.0155 0.0085 0.3979c0.1016,0.0805 0.1989,0.1327 0.2921,0.1553 0.0931,0.0225 0.1806,0.0338 0.2638,0.0338 0.247,0 0.4319,-0.0705 0.5532,-0.2116 0.1228,-0.1412 0.1849,-0.302 0.1849,-0.4826 0,-0.0918 -0.0184,-0.1708 -0.0565,-0.2357 -0.0367,-0.0649 -0.0861,-0.1129 -0.1467,-0.1439 -0.0621,-0.0325 -0.175,-0.0664 -0.3401,-0.1045 -0.1905,-0.0423 -0.3316,-0.0874 -0.4219,-0.134 -0.0918,-0.0466 -0.1623,-0.1171 -0.2117,-0.2089 -0.0494,-0.0931 -0.0734,-0.2074 -0.0734,-0.34 0,-0.1962 0.0536,-0.3697 0.1623,-0.5207 0.1086,-0.151 0.2469,-0.2667 0.4134,-0.3472 0.1666,-0.0804 0.3528,-0.1213 0.5589,-0.1213 0.2003,0 0.3725,0.0437 0.5164,0.1284l0.0085 0.0254c-0.0339,0.1355 -0.0649,0.3147 -0.0931,0.539l-0.017 0.017 -0.0903 0 -0.0169 -0.017 0 -0.3034c-0.1073,-0.127 -0.2667,-0.1905 -0.4798,-0.1905 -0.1256,0 -0.2385,0.0269 -0.3401,0.0791 -0.1016,0.0536 -0.1792,0.1312 -0.2371,0.2314 -0.0564,0.1016 -0.0846,0.2131 -0.0846,0.333 0,0.1058 0.0211,0.1947 0.0635,0.2653 0.0423,0.0706 0.1002,0.1228 0.1735,0.1552 0.0734,0.0339 0.2004,0.0706 0.3768,0.1129 0.1468,0.0325 0.2498,0.0593 0.3119,0.0819 0.0607,0.0225 0.1199,0.0578 0.1778,0.1086 0.0564,0.0508 0.1002,0.1115 0.1312,0.182 0.0296,0.0706 0.0452,0.1539 0.0452,0.2484 0,0.199 -0.0607,0.3782 -0.1807,0.5362 -0.1199,0.1581 -0.2652,0.2851 -0.4346,0.3796 -0.1679,0.0946 -0.3697,0.1411 -0.6039,0.1411 -0.2244,0 -0.4347,-0.0536 -0.628,-0.1594l-0.0085 -0.024z"/>
   <path id="12" class="fil5" d="M92.1813 25.4189l-0.0169 -0.0141 0.0113 -0.0889 0.0155 -0.0169c0.0776,-0.0127 0.1228,-0.024 0.1355,-0.031 0.0112,-0.0071 0.0254,-0.0198 0.0395,-0.0396 0.0141,-0.0183 0.031,-0.062 0.0494,-0.1312 0.0169,-0.0691 0.062,-0.3006 0.1354,-0.6929l0.127 -0.7069 0.0734 -0.453c0.0466,-0.3076 0.0691,-0.4826 0.0691,-0.5249 0,-0.0353 -0.007,-0.0607 -0.0225,-0.0734 -0.0141,-0.0127 -0.0424,-0.0212 -0.0847,-0.0268 -0.0437,-0.0042 -0.1185,-0.0085 -0.2258,-0.0127l-0.0141 -0.0198 0.0099 -0.086 0.0212 -0.017c0.1679,0.0113 0.3725,0.017 0.6152,0.017 0.182,0 0.3246,-0.0057 0.4276,-0.017l0.0169 0.017 -0.0099 0.0889 -0.0169 0.0183c-0.1679,0.0141 -0.2611,0.024 -0.278,0.0296 -0.0169,0.0043 -0.031,0.0127 -0.0409,0.0226 -0.0113,0.0113 -0.0198,0.0268 -0.0268,0.0494 -0.0198,0.0564 -0.0607,0.2512 -0.1214,0.5828l-0.2483 1.4577c-0.0325,0.2088 -0.0508,0.3654 -0.0551,0.4713 0.1538,0.0155 0.2978,0.024 0.429,0.024 0.175,0 0.3147,-0.0028 0.4177,-0.0071 0.103,-0.0042 0.1863,-0.0127 0.2455,-0.024 0.0607,-0.0113 0.0988,-0.0211 0.1129,-0.031 0.0155,-0.0113 0.0282,-0.0254 0.0381,-0.0438 0.0113,-0.0169 0.0282,-0.0649 0.0522,-0.1439l0.0762 -0.2667 0.0184 -0.0169 0.0889 0 0.0169 0.0183c-0.0522,0.3246 -0.0847,0.5489 -0.0974,0.6731l-0.0183 0.0155 -0.7296 -0.0084 -0.9525 -0.0057c-0.0959,0 -0.1905,0.0043 -0.2836,0.0141z"/>
   <path class="fil5" d="M103.065 22.7294c0,-0.1787 0.0197,-0.4223 0.0602,-0.7309 0.0404,-0.3086 0.1176,-0.6011 0.2305,-0.8777 0.1129,-0.2766 0.253,-0.5071 0.4214,-0.6933 0.1684,-0.1854 0.3547,-0.3208 0.5579,-0.4074 0.2041,-0.0865 0.4252,-0.1298 0.6623,-0.1298 0.3226,0 0.554,0.0931 0.6942,0.2785 0.1392,0.1853 0.2098,0.4638 0.2098,0.8353 0,0.2202 -0.0282,0.4751 -0.0847,0.7658 -0.0555,0.2907 -0.1307,0.5597 -0.2229,0.809 -0.0932,0.2493 -0.1919,0.4506 -0.2964,0.6059 -0.1044,0.1561 -0.2267,0.2925 -0.3668,0.4111 -0.1393,0.1185 -0.2813,0.205 -0.4243,0.2605 -0.143,0.0546 -0.2982,0.0828 -0.4657,0.0828 -0.3311,0 -0.5757,-0.0997 -0.7356,-0.2991 -0.1599,-0.1995 -0.2399,-0.5033 -0.2399,-0.9107zm2.3368 -1.031c0.0536,-0.3274 0.0799,-0.5823 0.0799,-0.7667 0,-0.301 -0.0517,-0.5249 -0.1571,-0.6717 -0.1044,-0.1477 -0.2474,-0.2211 -0.4299,-0.2211 -0.2719,0 -0.5259,0.1562 -0.7629,0.4685 -0.2371,0.3124 -0.4074,0.7093 -0.5099,1.191l1.7799 0zm-1.8128 0.1816c-0.0405,0.2521 -0.0659,0.4308 -0.0753,0.5381 -0.0084,0.1063 -0.0132,0.2022 -0.0132,0.2888 0,0.3509 0.048,0.6171 0.143,0.7996 0.096,0.1816 0.2559,0.2728 0.4798,0.2728 0.206,0 0.3791,-0.0649 0.5212,-0.1947 0.1411,-0.1289 0.2766,-0.3443 0.4064,-0.6463 0.1289,-0.301 0.2361,-0.6538 0.3208,-1.0583l-1.7827 0z"/>
   <path id="1" class="fil5" d="M108.673 25.1123l0.0198 0.0607 -0.0621 0.151c-0.285,0.2032 -0.6152,0.3062 -0.992,0.3062 -0.2752,0 -0.508,-0.0522 -0.6999,-0.1566 -0.1905,-0.1044 -0.3316,-0.2512 -0.4234,-0.4403 -0.0917,-0.1891 -0.1368,-0.4134 -0.1368,-0.6731 0,-0.2159 0.0296,-0.4177 0.0874,-0.6039 0.0593,-0.1849 0.1412,-0.3472 0.2484,-0.4855 0.1072,-0.1383 0.2342,-0.2596 0.3824,-0.3654 0.1482,-0.1059 0.2978,-0.1877 0.4488,-0.2442 0.1509,-0.0564 0.3245,-0.0846 0.5235,-0.0846 0.3118,0 0.5955,0.0536 0.8537,0.1608l0.0085 0.0226c-0.041,0.12 -0.0762,0.3133 -0.103,0.5814l-0.017 0.0169 -0.0875 0 -0.0155 -0.0169c0,-0.182 -0.0028,-0.2893 -0.007,-0.3232 -0.1722,-0.1481 -0.4206,-0.2229 -0.7437,-0.2229 -0.1298,0 -0.2554,0.0155 -0.3768,0.048 -0.1227,0.031 -0.23,0.0832 -0.3245,0.1566 -0.0946,0.072 -0.1792,0.1693 -0.2526,0.2935 -0.0734,0.1242 -0.1341,0.2681 -0.1806,0.4332 -0.0466,0.1651 -0.0706,0.3486 -0.0706,0.5518 0,0.3739 0.0917,0.6561 0.2752,0.8452 0.1848,0.1877 0.4332,0.2823 0.7465,0.2823 0.3048,0 0.6053,-0.0974 0.8988,-0.2936z"/>
   <path class="fil3 str0" d="M49.5798 85.242c0,-0.0903 -0.002,-0.1864 -0.002,-0.2786 0,-8.8731 7.1958,-16.0689 16.0689,-16.0689 5.0261,0 9.7657,2.3541 12.8025,6.3581"/>
   <g>
    <path class="fil2" d="M82.5229 72.8234l-16.2958 12.361 -0.6366 -0.8392 16.2958 -12.361 0.6366 0.8392zm1.3084 -1.6534l-3.0332 4.5279 -0.0138 -0.1288 -0.0171 -0.1261 -0.0207 -0.1236 -0.024 -0.1209 -0.0275 -0.1184 -0.031 -0.1157 -0.0343 -0.1131 -0.0379 -0.1105 -0.0412 -0.1079 -0.0447 -0.1053 -0.0481 -0.1027 -0.0516 -0.1001 -0.055 -0.0975 -0.0584 -0.0949 -0.0619 -0.0922 -0.0653 -0.0897 -0.0687 -0.087 -0.0722 -0.0845 -0.0756 -0.0818 -0.079 -0.0793 -0.0825 -0.0766 -0.086 -0.074 -0.0893 -0.0714 -0.0928 -0.0688 -0.0962 -0.0662 -0.0997 -0.0636 -0.1031 -0.061 -0.1066 -0.0584 -0.1099 -0.0558 -0.1135 -0.0531 -0.1168 -0.0506 -0.1203 -0.0479 0 0 5.1779 -1.7005z"/>
   </g>
   <circle class="fil4 str1" cx="65.6461" cy="85.1347" r="0.6796"/>
   <path class="fil5" d="M83.0792 67.8213l0.0358 0.0254c0.1496,-0.2117 0.333,-0.4488 0.5512,-0.7112 0.2042,-0.2465 0.3575,-0.4412 0.461,-0.5842 0.1025,-0.144 0.1797,-0.2832 0.2324,-0.4196 0.0527,-0.1355 0.079,-0.2521 0.079,-0.35 0,-0.0602 -0.016,-0.1542 -0.047,-0.2803l0.0329 -0.064c0.1891,-0.0827 0.3151,-0.1241 0.3772,-0.1241 0.0386,0 0.064,0.016 0.0743,0.047 0.0113,0.031 0.017,0.0724 0.017,0.1242 0,0.0959 -0.0273,0.2135 -0.0809,0.3537 -0.0546,0.1411 -0.1355,0.285 -0.2427,0.4327 -0.1082,0.1487 -0.2719,0.3453 -0.4921,0.5917 -0.2003,0.2221 -0.4148,0.4723 -0.6434,0.7508 -0.2286,0.2784 -0.3744,0.46 -0.4375,0.5446 -0.0197,0.1101 -0.0752,0.3199 -0.1646,0.6284 -0.0903,0.3086 -0.1505,0.5024 -0.1797,0.5814 -0.1232,0.0602 -0.237,0.1016 -0.3414,0.1242 -0.0273,-0.0423 -0.0527,-0.0865 -0.0744,-0.1326 0.0386,-0.0969 0.1374,-0.302 0.2973,-0.6134 0.1599,-0.3114 0.2822,-0.5193 0.3669,-0.6237 0.0847,-0.4798 0.127,-0.9492 0.127,-1.4083 0,-0.3697 -0.0536,-0.6416 -0.159,-0.8175 -0.1054,-0.1759 -0.2521,-0.2634 -0.4393,-0.2634 -0.0979,0 -0.1788,0.0198 -0.2437,0.0593 -0.0658,0.0395 -0.1354,0.1035 -0.2088,0.1919l-0.0358 0.0056 -0.0301 -0.0254 0 -0.0357c0.1383,-0.2183 0.2653,-0.3641 0.3829,-0.4365 0.1176,-0.0725 0.2418,-0.1091 0.3725,-0.1091 0.2239,0 0.3848,0.0865 0.4817,0.2605 0.0978,0.1741 0.1468,0.4356 0.1468,0.7865 0,0.2267 -0.017,0.4544 -0.0508,0.6839 -0.0348,0.2295 -0.0894,0.4986 -0.1647,0.8072z"/>
   <path id="1" class="fil5" d="M85.2373 69.6599l-0.0169 -0.0141 0.0113 -0.0889 0.0155 -0.0169c0.0776,-0.0127 0.1228,-0.024 0.1355,-0.031 0.0112,-0.0071 0.0254,-0.0198 0.0395,-0.0396 0.0141,-0.0183 0.031,-0.062 0.0494,-0.1312 0.0169,-0.0691 0.062,-0.3006 0.1354,-0.6929l0.127 -0.7069 0.0734 -0.453c0.0466,-0.3076 0.0691,-0.4826 0.0691,-0.5249 0,-0.0353 -0.007,-0.0607 -0.0225,-0.0734 -0.0141,-0.0127 -0.0424,-0.0212 -0.0847,-0.0268 -0.0437,-0.0042 -0.1185,-0.0085 -0.2258,-0.0127l-0.0141 -0.0198 0.0099 -0.086 0.0212 -0.017c0.1679,0.0113 0.3725,0.017 0.6152,0.017 0.182,0 0.3246,-0.0057 0.4276,-0.017l0.0169 0.017 -0.0099 0.0889 -0.0169 0.0183c-0.1679,0.0141 -0.2611,0.024 -0.278,0.0296 -0.0169,0.0043 -0.031,0.0127 -0.0409,0.0226 -0.0113,0.0113 -0.0198,0.0268 -0.0268,0.0494 -0.0198,0.0564 -0.0607,0.2512 -0.1214,0.5828l-0.2483 1.4577c-0.0325,0.2088 -0.0508,0.3654 -0.0551,0.4713 0.1538,0.0155 0.2978,0.024 0.429,0.024 0.175,0 0.3147,-0.0028 0.4177,-0.0071 0.103,-0.0042 0.1863,-0.0127 0.2455,-0.024 0.0607,-0.0113 0.0988,-0.0211 0.1129,-0.031 0.0155,-0.0113 0.0282,-0.0254 0.0381,-0.0438 0.0113,-0.0169 0.0282,-0.0649 0.0522,-0.1439l0.0762 -0.2667 0.0184 -0.0169 0.0889 0 0.0169 0.0183c-0.0522,0.3246 -0.0847,0.5489 -0.0974,0.6731l-0.0183 0.0155 -0.7296 -0.0084 -0.9525 -0.0057c-0.0959,0 -0.1905,0.0043 -0.2836,0.0141z"/>
   <path id="12" class="fil5" d="M90.0859 69.4666l-0.0184 0.0311c-0.0465,0.0028 -0.1326,0.0268 -0.2568,0.0691 -0.1891,0.0635 -0.3344,0.1073 -0.4374,0.1298 -0.1016,0.0226 -0.2202,0.0339 -0.3542,0.0339 -0.2893,0 -0.5306,-0.0508 -0.7268,-0.151 -0.1947,-0.1002 -0.3386,-0.2427 -0.4304,-0.4276 -0.0931,-0.1848 -0.1382,-0.3951 -0.1382,-0.6307 0,-0.2625 0.0451,-0.5137 0.134,-0.7507 0.0889,-0.2385 0.2244,-0.4403 0.4036,-0.6054 0.1792,-0.1651 0.3683,-0.2879 0.5673,-0.3669 0.1989,-0.079 0.4177,-0.1185 0.6575,-0.1185 0.2921,0 0.5744,0.055 0.8439,0.1637l0.0085 0.0225c-0.0494,0.1482 -0.0904,0.3443 -0.12,0.5871l-0.0169 0.0169 -0.0861 0 -0.0169 -0.0169c0,-0.1002 -0.0057,-0.2188 -0.0141,-0.3542 -0.0734,-0.0621 -0.1793,-0.1115 -0.319,-0.1482 -0.1397,-0.0381 -0.2808,-0.0564 -0.4261,-0.0564 -0.2371,0 -0.4487,0.0564 -0.635,0.1679 -0.1863,0.1115 -0.3345,0.2921 -0.4431,0.5433 -0.1073,0.2511 -0.1623,0.5235 -0.1623,0.817 0,0.1651 0.0212,0.3203 0.0607,0.4642 0.0395,0.144 0.1115,0.2682 0.2131,0.374 0.103,0.1058 0.2201,0.1778 0.3513,0.2173 0.1313,0.0381 0.2738,0.0579 0.4276,0.0579 0.2272,0 0.4191,-0.0438 0.5772,-0.1341l0.0762 -0.405c0.0211,-0.1171 0.031,-0.1961 0.031,-0.2356 0,-0.0353 -0.0113,-0.0635 -0.0339,-0.0819 -0.0211,-0.0183 -0.0762,-0.031 -0.1622,-0.0353l-0.2823 -0.024 -0.0155 -0.0155 0.0127 -0.0917 0.0198 -0.0155 0.0719 0.0014c0.2427,0.0085 0.4008,0.0127 0.4742,0.0127 0.1538,0 0.3189,-0.0028 0.4939,-0.0071l0.0141 0.017 -0.0085 0.0804 -0.0155 0.0183c-0.0861,0.0156 -0.1397,0.0283 -0.1623,0.0381 -0.0226,0.0099 -0.0395,0.0212 -0.048,0.0367 -0.0084,0.0156 -0.0211,0.0579 -0.0367,0.127l-0.024 0.1172c-0.0112,0.0536 -0.0239,0.1326 -0.0395,0.2356 -0.0155,0.103 -0.0225,0.1778 -0.0225,0.223 0,0.0211 0.0042,0.0437 0.0141,0.0691z"/>
   <path class="fil5" d="M88.741 82.3542l0.0358 0.0254c0.1496,-0.2117 0.333,-0.4488 0.5512,-0.7112 0.2042,-0.2465 0.3575,-0.4412 0.461,-0.5842 0.1025,-0.144 0.1797,-0.2832 0.2324,-0.4196 0.0527,-0.1355 0.079,-0.2521 0.079,-0.35 0,-0.0602 -0.016,-0.1542 -0.047,-0.2803l0.0329 -0.064c0.1891,-0.0827 0.3151,-0.1241 0.3772,-0.1241 0.0386,0 0.064,0.016 0.0743,0.047 0.0113,0.031 0.017,0.0724 0.017,0.1242 0,0.0959 -0.0273,0.2135 -0.0809,0.3537 -0.0546,0.1411 -0.1355,0.285 -0.2427,0.4327 -0.1082,0.1487 -0.2719,0.3453 -0.4921,0.5917 -0.2003,0.2221 -0.4148,0.4723 -0.6434,0.7508 -0.2286,0.2784 -0.3744,0.46 -0.4375,0.5446 -0.0197,0.1101 -0.0752,0.3199 -0.1646,0.6284 -0.0903,0.3086 -0.1505,0.5024 -0.1797,0.5814 -0.1232,0.0602 -0.237,0.1016 -0.3414,0.1242 -0.0273,-0.0423 -0.0527,-0.0865 -0.0744,-0.1326 0.0386,-0.0969 0.1374,-0.302 0.2973,-0.6134 0.1599,-0.3114 0.2822,-0.5193 0.3669,-0.6237 0.0847,-0.4798 0.127,-0.9492 0.127,-1.4083 0,-0.3697 -0.0536,-0.6416 -0.159,-0.8175 -0.1054,-0.1759 -0.2521,-0.2634 -0.4393,-0.2634 -0.0979,0 -0.1788,0.0198 -0.2437,0.0593 -0.0658,0.0395 -0.1354,0.1035 -0.2088,0.1919l-0.0358 0.0056 -0.0301 -0.0254 0 -0.0357c0.1383,-0.2183 0.2653,-0.3641 0.3829,-0.4365 0.1176,-0.0725 0.2418,-0.1091 0.3725,-0.1091 0.2239,0 0.3848,0.0865 0.4817,0.2605 0.0978,0.1741 0.1468,0.4356 0.1468,0.7865 0,0.2267 -0.017,0.4544 -0.0508,0.6839 -0.0348,0.2295 -0.0894,0.4986 -0.1647,0.8072z"/>
   <path id="1" class="fil5" d="M91.0049 84.0842c0.048,-0.182 0.0819,-0.3838 0.1016,-0.604l0.0198 -0.0183 0.0875 0 0.0141 0.0155 0.0085 0.3979c0.1016,0.0805 0.1989,0.1327 0.2921,0.1553 0.0931,0.0225 0.1806,0.0338 0.2638,0.0338 0.247,0 0.4319,-0.0705 0.5532,-0.2116 0.1228,-0.1412 0.1849,-0.302 0.1849,-0.4826 0,-0.0918 -0.0184,-0.1708 -0.0565,-0.2357 -0.0367,-0.0649 -0.0861,-0.1129 -0.1467,-0.1439 -0.0621,-0.0325 -0.175,-0.0664 -0.3401,-0.1045 -0.1905,-0.0423 -0.3316,-0.0874 -0.4219,-0.134 -0.0918,-0.0466 -0.1623,-0.1171 -0.2117,-0.2089 -0.0494,-0.0931 -0.0734,-0.2074 -0.0734,-0.34 0,-0.1962 0.0536,-0.3697 0.1623,-0.5207 0.1086,-0.151 0.2469,-0.2667 0.4134,-0.3472 0.1666,-0.0804 0.3528,-0.1213 0.5589,-0.1213 0.2003,0 0.3725,0.0437 0.5164,0.1284l0.0085 0.0254c-0.0339,0.1355 -0.0649,0.3147 -0.0931,0.539l-0.017 0.017 -0.0903 0 -0.0169 -0.017 0 -0.3034c-0.1073,-0.127 -0.2667,-0.1905 -0.4798,-0.1905 -0.1256,0 -0.2385,0.0269 -0.3401,0.0791 -0.1016,0.0536 -0.1792,0.1312 -0.2371,0.2314 -0.0564,0.1016 -0.0846,0.2131 -0.0846,0.333 0,0.1058 0.0211,0.1947 0.0635,0.2653 0.0423,0.0706 0.1002,0.1228 0.1735,0.1552 0.0734,0.0339 0.2004,0.0706 0.3768,0.1129 0.1468,0.0325 0.2498,0.0593 0.3119,0.0819 0.0607,0.0225 0.1199,0.0578 0.1778,0.1086 0.0564,0.0508 0.1002,0.1115 0.1312,0.182 0.0296,0.0706 0.0452,0.1539 0.0452,0.2484 0,0.199 -0.0607,0.3782 -0.1807,0.5362 -0.1199,0.1581 -0.2652,0.2851 -0.4346,0.3796 -0.1679,0.0946 -0.3697,0.1411 -0.6039,0.1411 -0.2244,0 -0.4347,-0.0536 -0.628,-0.1594l-0.0085 -0.024z"/>
   <path id="12" class="fil5" d="M95.7463 83.9995l-0.0184 0.0311c-0.0465,0.0028 -0.1326,0.0268 -0.2568,0.0691 -0.1891,0.0635 -0.3344,0.1073 -0.4374,0.1298 -0.1016,0.0226 -0.2202,0.0339 -0.3542,0.0339 -0.2893,0 -0.5306,-0.0508 -0.7268,-0.151 -0.1947,-0.1002 -0.3386,-0.2427 -0.4304,-0.4276 -0.0931,-0.1848 -0.1382,-0.3951 -0.1382,-0.6307 0,-0.2625 0.0451,-0.5137 0.134,-0.7507 0.0889,-0.2385 0.2244,-0.4403 0.4036,-0.6054 0.1792,-0.1651 0.3683,-0.2879 0.5673,-0.3669 0.1989,-0.079 0.4177,-0.1185 0.6575,-0.1185 0.2921,0 0.5744,0.055 0.8439,0.1637l0.0085 0.0225c-0.0494,0.1482 -0.0904,0.3443 -0.12,0.5871l-0.0169 0.0169 -0.0861 0 -0.0169 -0.0169c0,-0.1002 -0.0057,-0.2188 -0.0141,-0.3542 -0.0734,-0.0621 -0.1793,-0.1115 -0.319,-0.1482 -0.1397,-0.0381 -0.2808,-0.0564 -0.4261,-0.0564 -0.2371,0 -0.4487,0.0564 -0.635,0.1679 -0.1863,0.1115 -0.3345,0.2921 -0.4431,0.5433 -0.1073,0.2511 -0.1623,0.5235 -0.1623,0.817 0,0.1651 0.0212,0.3203 0.0607,0.4642 0.0395,0.144 0.1115,0.2682 0.2131,0.374 0.103,0.1058 0.2201,0.1778 0.3513,0.2173 0.1313,0.0381 0.2738,0.0579 0.4276,0.0579 0.2272,0 0.4191,-0.0438 0.5772,-0.1341l0.0762 -0.405c0.0211,-0.1171 0.031,-0.1961 0.031,-0.2356 0,-0.0353 -0.0113,-0.0635 -0.0339,-0.0819 -0.0211,-0.0183 -0.0762,-0.031 -0.1622,-0.0353l-0.2823 -0.024 -0.0155 -0.0155 0.0127 -0.0917 0.0198 -0.0155 0.0719 0.0014c0.2427,0.0085 0.4008,0.0127 0.4742,0.0127 0.1538,0 0.3189,-0.0028 0.4939,-0.0071l0.0141 0.017 -0.0085 0.0804 -0.0155 0.0183c-0.0861,0.0156 -0.1397,0.0283 -0.1623,0.0381 -0.0226,0.0099 -0.0395,0.0212 -0.048,0.0367 -0.0084,0.0156 -0.0211,0.0579 -0.0367,0.127l-0.024 0.1172c-0.0112,0.0536 -0.0239,0.1326 -0.0395,0.2356 -0.0155,0.103 -0.0225,0.1778 -0.0225,0.223 0,0.0211 0.0042,0.0437 0.0141,0.0691z"/>
   <path class="fil5" d="M26.0831 80.5182l0.0358 0.0254c0.1496,-0.2117 0.333,-0.4488 0.5512,-0.7112 0.2042,-0.2465 0.3575,-0.4412 0.461,-0.5842 0.1025,-0.144 0.1797,-0.2832 0.2324,-0.4196 0.0527,-0.1355 0.079,-0.2521 0.079,-0.35 0,-0.0602 -0.016,-0.1542 -0.047,-0.2803l0.0329 -0.064c0.1891,-0.0827 0.3151,-0.1241 0.3772,-0.1241 0.0386,0 0.064,0.016 0.0743,0.047 0.0113,0.031 0.017,0.0724 0.017,0.1242 0,0.0959 -0.0273,0.2135 -0.0809,0.3537 -0.0546,0.1411 -0.1355,0.285 -0.2427,0.4327 -0.1082,0.1487 -0.2719,0.3453 -0.4921,0.5917 -0.2003,0.2221 -0.4148,0.4723 -0.6434,0.7508 -0.2286,0.2784 -0.3744,0.46 -0.4375,0.5446 -0.0197,0.1101 -0.0752,0.3199 -0.1646,0.6284 -0.0903,0.3086 -0.1505,0.5024 -0.1797,0.5814 -0.1232,0.0602 -0.237,0.1016 -0.3414,0.1242 -0.0273,-0.0423 -0.0527,-0.0865 -0.0744,-0.1326 0.0386,-0.0969 0.1374,-0.302 0.2973,-0.6134 0.1599,-0.3114 0.2822,-0.5193 0.3669,-0.6237 0.0847,-0.4798 0.127,-0.9492 0.127,-1.4083 0,-0.3697 -0.0536,-0.6416 -0.159,-0.8175 -0.1054,-0.1759 -0.2521,-0.2634 -0.4393,-0.2634 -0.0979,0 -0.1788,0.0198 -0.2437,0.0593 -0.0658,0.0395 -0.1354,0.1035 -0.2088,0.1919l-0.0358 0.0056 -0.0301 -0.0254 0 -0.0357c0.1383,-0.2183 0.2653,-0.3641 0.3829,-0.4365 0.1176,-0.0725 0.2418,-0.1091 0.3725,-0.1091 0.2239,0 0.3848,0.0865 0.4817,0.2605 0.0978,0.1741 0.1468,0.4356 0.1468,0.7865 0,0.2267 -0.017,0.4544 -0.0508,0.6839 -0.0348,0.2295 -0.0894,0.4986 -0.1647,0.8072z"/>
   <path id="1" class="fil5" d="M28.347 82.2482c0.048,-0.182 0.0819,-0.3838 0.1016,-0.604l0.0198 -0.0183 0.0875 0 0.0141 0.0155 0.0085 0.3979c0.1016,0.0805 0.1989,0.1327 0.2921,0.1553 0.0931,0.0225 0.1806,0.0338 0.2638,0.0338 0.247,0 0.4319,-0.0705 0.5532,-0.2116 0.1228,-0.1412 0.1849,-0.302 0.1849,-0.4826 0,-0.0918 -0.0184,-0.1708 -0.0565,-0.2357 -0.0367,-0.0649 -0.0861,-0.1129 -0.1467,-0.1439 -0.0621,-0.0325 -0.175,-0.0664 -0.3401,-0.1045 -0.1905,-0.0423 -0.3316,-0.0874 -0.4219,-0.134 -0.0918,-0.0466 -0.1623,-0.1171 -0.2117,-0.2089 -0.0494,-0.0931 -0.0734,-0.2074 -0.0734,-0.34 0,-0.1962 0.0536,-0.3697 0.1623,-0.5207 0.1086,-0.151 0.2469,-0.2667 0.4134,-0.3472 0.1666,-0.0804 0.3528,-0.1213 0.5589,-0.1213 0.2003,0 0.3725,0.0437 0.5164,0.1284l0.0085 0.0254c-0.0339,0.1355 -0.0649,0.3147 -0.0931,0.539l-0.017 0.017 -0.0903 0 -0.0169 -0.017 0 -0.3034c-0.1073,-0.127 -0.2667,-0.1905 -0.4798,-0.1905 -0.1256,0 -0.2385,0.0269 -0.3401,0.0791 -0.1016,0.0536 -0.1792,0.1312 -0.2371,0.2314 -0.0564,0.1016 -0.0846,0.2131 -0.0846,0.333 0,0.1058 0.0211,0.1947 0.0635,0.2653 0.0423,0.0706 0.1002,0.1228 0.1735,0.1552 0.0734,0.0339 0.2004,0.0706 0.3768,0.1129 0.1468,0.0325 0.2498,0.0593 0.3119,0.0819 0.0607,0.0225 0.1199,0.0578 0.1778,0.1086 0.0564,0.0508 0.1002,0.1115 0.1312,0.182 0.0296,0.0706 0.0452,0.1539 0.0452,0.2484 0,0.199 -0.0607,0.3782 -0.1807,0.5362 -0.1199,0.1581 -0.2652,0.2851 -0.4346,0.3796 -0.1679,0.0946 -0.3697,0.1411 -0.6039,0.1411 -0.2244,0 -0.4347,-0.0536 -0.628,-0.1594l-0.0085 -0.024z"/>
   <path id="12" class="fil5" d="M30.5935 82.3568l-0.0169 -0.0141 0.0113 -0.0889 0.0155 -0.0169c0.0776,-0.0127 0.1228,-0.024 0.1355,-0.031 0.0112,-0.0071 0.0254,-0.0198 0.0395,-0.0396 0.0141,-0.0183 0.031,-0.062 0.0494,-0.1312 0.0169,-0.0691 0.062,-0.3006 0.1354,-0.6929l0.127 -0.7069 0.0734 -0.453c0.0466,-0.3076 0.0691,-0.4826 0.0691,-0.5249 0,-0.0353 -0.007,-0.0607 -0.0225,-0.0734 -0.0141,-0.0127 -0.0424,-0.0212 -0.0847,-0.0268 -0.0437,-0.0042 -0.1185,-0.0085 -0.2258,-0.0127l-0.0141 -0.0198 0.0099 -0.086 0.0212 -0.017c0.1679,0.0113 0.3725,0.017 0.6152,0.017 0.182,0 0.3246,-0.0057 0.4276,-0.017l0.0169 0.017 -0.0099 0.0889 -0.0169 0.0183c-0.1679,0.0141 -0.2611,0.024 -0.278,0.0296 -0.0169,0.0043 -0.031,0.0127 -0.0409,0.0226 -0.0113,0.0113 -0.0198,0.0268 -0.0268,0.0494 -0.0198,0.0564 -0.0607,0.2512 -0.1214,0.5828l-0.2483 1.4577c-0.0325,0.2088 -0.0508,0.3654 -0.0551,0.4713 0.1538,0.0155 0.2978,0.024 0.429,0.024 0.175,0 0.3147,-0.0028 0.4177,-0.0071 0.103,-0.0042 0.1863,-0.0127 0.2455,-0.024 0.0607,-0.0113 0.0988,-0.0211 0.1129,-0.031 0.0155,-0.0113 0.0282,-0.0254 0.0381,-0.0438 0.0113,-0.0169 0.0282,-0.0649 0.0522,-0.1439l0.0762 -0.2667 0.0184 -0.0169 0.0889 0 0.0169 0.0183c-0.0522,0.3246 -0.0847,0.5489 -0.0974,0.6731l-0.0183 0.0155 -0.7296 -0.0084 -0.9525 -0.0057c-0.0959,0 -0.1905,0.0043 -0.2836,0.0141z"/>
   <path class="fil5" d="M60.9058 78.339c0,-0.1787 0.0197,-0.4223 0.0602,-0.7309 0.0404,-0.3086 0.1176,-0.6011 0.2305,-0.8777 0.1129,-0.2766 0.253,-0.5071 0.4214,-0.6933 0.1684,-0.1854 0.3547,-0.3208 0.5579,-0.4074 0.2041,-0.0865 0.4252,-0.1298 0.6623,-0.1298 0.3226,0 0.554,0.0931 0.6942,0.2785 0.1392,0.1853 0.2098,0.4638 0.2098,0.8353 0,0.2202 -0.0282,0.4751 -0.0847,0.7658 -0.0555,0.2907 -0.1307,0.5597 -0.2229,0.809 -0.0932,0.2493 -0.1919,0.4506 -0.2964,0.6059 -0.1044,0.1561 -0.2267,0.2925 -0.3668,0.4111 -0.1393,0.1185 -0.2813,0.205 -0.4243,0.2605 -0.143,0.0546 -0.2982,0.0828 -0.4657,0.0828 -0.3311,0 -0.5757,-0.0997 -0.7356,-0.2991 -0.1599,-0.1995 -0.2399,-0.5033 -0.2399,-0.9107zm2.3368 -1.031c0.0536,-0.3274 0.0799,-0.5823 0.0799,-0.7667 0,-0.301 -0.0517,-0.5249 -0.1571,-0.6717 -0.1044,-0.1477 -0.2474,-0.2211 -0.4299,-0.2211 -0.2719,0 -0.5259,0.1562 -0.7629,0.4685 -0.2371,0.3124 -0.4074,0.7093 -0.5099,1.191l1.7799 0zm-1.8128 0.1816c-0.0405,0.2521 -0.0659,0.4308 -0.0753,0.5381 -0.0084,0.1063 -0.0132,0.2022 -0.0132,0.2888 0,0.3509 0.048,0.6171 0.143,0.7996 0.096,0.1816 0.2559,0.2728 0.4798,0.2728 0.206,0 0.3791,-0.0649 0.5212,-0.1947 0.1411,-0.1289 0.2766,-0.3443 0.4064,-0.6463 0.1289,-0.301 0.2361,-0.6538 0.3208,-1.0583l-1.7827 0z"/>
   <path id="1" class="fil5" d="M66.5135 80.7219l0.0198 0.0607 -0.0621 0.151c-0.285,0.2032 -0.6152,0.3062 -0.992,0.3062 -0.2752,0 -0.508,-0.0522 -0.6999,-0.1566 -0.1905,-0.1044 -0.3316,-0.2512 -0.4234,-0.4403 -0.0917,-0.1891 -0.1368,-0.4134 -0.1368,-0.6731 0,-0.2159 0.0296,-0.4177 0.0874,-0.6039 0.0593,-0.1849 0.1412,-0.3472 0.2484,-0.4855 0.1072,-0.1383 0.2342,-0.2596 0.3824,-0.3654 0.1482,-0.1059 0.2978,-0.1877 0.4488,-0.2442 0.1509,-0.0564 0.3245,-0.0846 0.5235,-0.0846 0.3118,0 0.5955,0.0536 0.8537,0.1608l0.0085 0.0226c-0.041,0.12 -0.0762,0.3133 -0.103,0.5814l-0.017 0.0169 -0.0875 0 -0.0155 -0.0169c0,-0.182 -0.0028,-0.2893 -0.007,-0.3232 -0.1722,-0.1481 -0.4206,-0.2229 -0.7437,-0.2229 -0.1298,0 -0.2554,0.0155 -0.3768,0.048 -0.1227,0.031 -0.23,0.0832 -0.3245,0.1566 -0.0946,0.072 -0.1792,0.1693 -0.2526,0.2935 -0.0734,0.1242 -0.1341,0.2681 -0.1806,0.4332 -0.0466,0.1651 -0.0706,0.3486 -0.0706,0.5518 0,0.3739 0.0917,0.6561 0.2752,0.8452 0.1848,0.1877 0.4332,0.2823 0.7465,0.2823 0.3048,0 0.6053,-0.0974 0.8988,-0.2936z"/>
   <path class="fil5" d="M17.7598 52.176c0,-0.1787 0.0197,-0.4223 0.0602,-0.7309 0.0404,-0.3086 0.1176,-0.6011 0.2305,-0.8777 0.1129,-0.2766 0.253,-0.5071 0.4214,-0.6933 0.1684,-0.1854 0.3547,-0.3208 0.5579,-0.4074 0.2041,-0.0865 0.4252,-0.1298 0.6623,-0.1298 0.3226,0 0.554,0.0931 0.6942,0.2785 0.1392,0.1853 0.2098,0.4638 0.2098,0.8353 0,0.2202 -0.0282,0.4751 -0.0847,0.7658 -0.0555,0.2907 -0.1307,0.5597 -0.2229,0.809 -0.0932,0.2493 -0.1919,0.4506 -0.2964,0.6059 -0.1044,0.1561 -0.2267,0.2925 -0.3668,0.4111 -0.1393,0.1185 -0.2813,0.205 -0.4243,0.2605 -0.143,0.0546 -0.2982,0.0828 -0.4657,0.0828 -0.3311,0 -0.5757,-0.0997 -0.7356,-0.2991 -0.1599,-0.1995 -0.2399,-0.5033 -0.2399,-0.9107zm2.3368 -1.031c0.0536,-0.3274 0.0799,-0.5823 0.0799,-0.7667 0,-0.301 -0.0517,-0.5249 -0.1571,-0.6717 -0.1044,-0.1477 -0.2474,-0.2211 -0.4299,-0.2211 -0.2719,0 -0.5259,0.1562 -0.7629,0.4685 -0.2371,0.3124 -0.4074,0.7093 -0.5099,1.191l1.7799 0zm-1.8128 0.1816c-0.0405,0.2521 -0.0659,0.4308 -0.0753,0.5381 -0.0084,0.1063 -0.0132,0.2022 -0.0132,0.2888 0,0.3509 0.048,0.6171 0.143,0.7996 0.096,0.1816 0.2559,0.2728 0.4798,0.2728 0.206,0 0.3791,-0.0649 0.5212,-0.1947 0.1411,-0.1289 0.2766,-0.3443 0.4064,-0.6463 0.1289,-0.301 0.2361,-0.6538 0.3208,-1.0583l-1.7827 0z"/>
   <path id="1" class="fil5" d="M41.8271 52.923l0.0329 0.0517 -0.016 0.0358c-0.0997,0.0828 -0.2145,0.1655 -0.3443,0.2483 -0.1308,0.0828 -0.2493,0.1242 -0.3556,0.1242 -0.1439,0 -0.253,-0.0677 -0.3283,-0.2041 -0.0753,-0.1364 -0.1129,-0.2992 -0.1129,-0.4902 0,-0.2342 0.0414,-0.4957 0.1251,-0.7873 0.0837,-0.2907 0.2202,-0.588 0.4092,-0.8919l-1.3725 0c-0.1665,0.9041 -0.3349,1.6435 -0.5042,2.2192 -0.0932,0.0602 -0.2004,0.1044 -0.3199,0.1317l-0.0461 -0.0489c0.0838,-0.1881 0.1524,-0.3481 0.2032,-0.4826 0.0518,-0.1345 0.1063,-0.2935 0.1628,-0.4769 0.0574,-0.1835 0.1176,-0.3951 0.1825,-0.6341l0.19 -0.7084 -0.1326 0c-0.1731,0 -0.3011,0.0141 -0.3848,0.0414 -0.0837,0.0283 -0.1533,0.0687 -0.2088,0.1233 -0.0565,0.0536 -0.1214,0.1392 -0.1948,0.2549l-0.0414 0.016 -0.0442 -0.0273 -0.0056 -0.0414c0.127,-0.3471 0.2154,-0.5531 0.2653,-0.6171 0.0489,-0.0649 0.1401,-0.0969 0.2728,-0.0969l1.2455 0.0198c0.4102,0 0.8758,-0.0085 1.397,-0.0254 -0.0442,0.1514 -0.0687,0.2455 -0.0743,0.2841l-0.3528 0.0686c-0.2531,0.4375 -0.3801,0.8871 -0.3801,1.3481 0,0.206 0.0273,0.3735 0.0828,0.5042 0.0546,0.1308 0.144,0.1957 0.2672,0.1957 0.0461,0 0.0903,-0.0075 0.1326,-0.0235 0.0424,-0.0151 0.1129,-0.0546 0.2117,-0.1167l0.0386 0.0057z"/>
   <path id="12" class="fil5" d="M23.3675 54.5589l0.0198 0.0607 -0.0621 0.151c-0.285,0.2032 -0.6152,0.3062 -0.992,0.3062 -0.2752,0 -0.508,-0.0522 -0.6999,-0.1566 -0.1905,-0.1044 -0.3316,-0.2512 -0.4234,-0.4403 -0.0917,-0.1891 -0.1368,-0.4134 -0.1368,-0.6731 0,-0.2159 0.0296,-0.4177 0.0874,-0.6039 0.0593,-0.1849 0.1412,-0.3472 0.2484,-0.4855 0.1072,-0.1383 0.2342,-0.2596 0.3824,-0.3654 0.1482,-0.1059 0.2978,-0.1877 0.4488,-0.2442 0.1509,-0.0564 0.3245,-0.0846 0.5235,-0.0846 0.3118,0 0.5955,0.0536 0.8537,0.1608l0.0085 0.0226c-0.041,0.12 -0.0762,0.3133 -0.103,0.5814l-0.017 0.0169 -0.0875 0 -0.0155 -0.0169c0,-0.182 -0.0028,-0.2893 -0.007,-0.3232 -0.1722,-0.1481 -0.4206,-0.2229 -0.7437,-0.2229 -0.1298,0 -0.2554,0.0155 -0.3768,0.048 -0.1227,0.031 -0.23,0.0832 -0.3245,0.1566 -0.0946,0.072 -0.1792,0.1693 -0.2526,0.2935 -0.0734,0.1242 -0.1341,0.2681 -0.1806,0.4332 -0.0466,0.1651 -0.0706,0.3486 -0.0706,0.5518 0,0.3739 0.0917,0.6561 0.2752,0.8452 0.1848,0.1877 0.4332,0.2823 0.7465,0.2823 0.3048,0 0.6053,-0.0974 0.8988,-0.2936z"/>
   <path id="123" class="fil5" d="M28.5044 51.2776l-2.6566 0 0 -0.2812 2.6566 0 0 0.2812zm0 0.8373l-2.6566 0 0 -0.2813 2.6566 0 0 0.2813z"/>
   <path id="1234" class="fil5" d="M30.1695 51.6135c0,-0.3274 0.016,-0.6218 0.0489,-0.8834 0.0339,-0.2615 0.1063,-0.4948 0.2192,-0.6999 0.1129,-0.205 0.255,-0.3584 0.4243,-0.46 0.1703,-0.1025 0.3641,-0.1533 0.5804,-0.1533 0.2465,0 0.4629,0.063 0.6491,0.19 0.1863,0.127 0.3208,0.3217 0.4027,0.5842 0.0818,0.2634 0.1223,0.6199 0.1223,1.0724 0,0.7347 -0.112,1.2757 -0.3378,1.6228 -0.2248,0.3481 -0.5362,0.5212 -0.9351,0.5212 -0.2003,0 -0.3772,-0.0433 -0.5305,-0.1299 -0.1534,-0.0856 -0.2794,-0.2107 -0.3782,-0.3744 -0.0978,-0.1637 -0.1665,-0.3565 -0.206,-0.5785 -0.0395,-0.223 -0.0593,-0.4591 -0.0593,-0.7112zm0.4741 -0.1599c0,0.349 0.0254,0.6669 0.0781,0.9539 0.0527,0.2859 0.1393,0.4929 0.2615,0.618 0.1223,0.1261 0.2682,0.1891 0.4375,0.1891 0.1637,0 0.3001,-0.0555 0.4092,-0.1684 0.1091,-0.1119 0.1891,-0.3038 0.2399,-0.5757 0.0499,-0.2719 0.0753,-0.6077 0.0753,-1.0085 0,-0.6284 -0.0593,-1.0931 -0.1788,-1.3951 -0.1195,-0.301 -0.317,-0.4515 -0.5926,-0.4515 -0.2409,0 -0.4224,0.1166 -0.5457,0.3499 -0.1232,0.2333 -0.1844,0.7291 -0.1844,1.4883z"/>
   <path id="12345" class="fil5" d="M32.7819 54.0914c0.1139,-0.1891 0.1957,-0.3321 0.2456,-0.4271 0.0489,-0.096 0.0931,-0.1966 0.1307,-0.302 0.0377,-0.1054 0.0621,-0.1872 0.0743,-0.2436 0.0123,-0.0574 0.0292,-0.175 0.0508,-0.3528 0.0094,-0.0038 0.0612,-0.0169 0.1543,-0.0386 0.1289,-0.032 0.2653,-0.0743 0.4083,-0.127l0.0687 0.0772c-0.2333,0.5418 -0.5099,1 -0.8298,1.3753l-0.2342 0.1073 -0.0687 -0.0687z"/>
   <path id="123456" class="fil5" d="M35.1573 51.3435c-0.2032,-0.1082 -0.3584,-0.2333 -0.4638,-0.3735 -0.1063,-0.1411 -0.159,-0.3114 -0.159,-0.5117 0,-0.2804 0.1044,-0.5221 0.3114,-0.7235 0.2079,-0.2003 0.4911,-0.301 0.8495,-0.301 0.1815,0 0.3499,0.0311 0.5052,0.095 0.1552,0.0631 0.2756,0.1581 0.3603,0.2832 0.0837,0.126 0.126,0.2662 0.126,0.4205 0,0.1618 -0.0489,0.317 -0.1486,0.4647 -0.0988,0.1477 -0.2747,0.2982 -0.5259,0.4506l0 0.0245c0.2145,0.1035 0.3744,0.19 0.4779,0.2624 0.1035,0.0715 0.1891,0.1684 0.2549,0.2907 0.0659,0.1214 0.0988,0.2625 0.0988,0.4224 0,0.2192 -0.063,0.429 -0.1881,0.6303 -0.1261,0.2013 -0.2917,0.3537 -0.4977,0.4591 -0.206,0.1044 -0.4186,0.1571 -0.6397,0.1571 -0.3217,0 -0.587,-0.0903 -0.7968,-0.2709 -0.2088,-0.1797 -0.3132,-0.4196 -0.3132,-0.7188 0,-0.2427 0.0715,-0.4515 0.2154,-0.6274 0.1449,-0.175 0.3227,-0.3114 0.5334,-0.4092l0 -0.0245zm0.6425 -0.2643c0.1966,-0.1233 0.3302,-0.2475 0.3998,-0.3707 0.0696,-0.1242 0.1044,-0.2578 0.1044,-0.4017 0,-0.2107 -0.0602,-0.3782 -0.1815,-0.5014 -0.1214,-0.1232 -0.2841,-0.1844 -0.4883,-0.1844 -0.1947,0 -0.3565,0.0546 -0.4844,0.1637 -0.1289,0.1091 -0.1929,0.2625 -0.1929,0.4591 0,0.1486 0.0414,0.2775 0.1251,0.3876 0.0837,0.1091 0.3227,0.2577 0.7178,0.4478zm-0.4186 0.3631c-0.2173,0.1289 -0.3679,0.2671 -0.4525,0.4148 -0.0847,0.1477 -0.127,0.3161 -0.127,0.5033 0,0.2625 0.0743,0.4685 0.2211,0.619 0.1467,0.1496 0.3358,0.2239 0.5672,0.2239 0.1581,0 0.302,-0.0367 0.4299,-0.11 0.1289,-0.0734 0.2249,-0.1741 0.2888,-0.302 0.0631,-0.127 0.0951,-0.2662 0.0951,-0.4168 0,-0.2173 -0.0762,-0.3866 -0.2277,-0.508 -0.1515,-0.1204 -0.4167,-0.2624 -0.7949,-0.4242z"/>
   <path class="fil5" d="M99.688 50.952c0,-0.1787 0.0197,-0.4223 0.0602,-0.7309 0.0404,-0.3086 0.1176,-0.6011 0.2305,-0.8777 0.1129,-0.2766 0.253,-0.5071 0.4214,-0.6933 0.1684,-0.1854 0.3547,-0.3208 0.5579,-0.4074 0.2041,-0.0865 0.4252,-0.1298 0.6623,-0.1298 0.3226,0 0.554,0.0931 0.6942,0.2785 0.1392,0.1853 0.2098,0.4638 0.2098,0.8353 0,0.2202 -0.0282,0.4751 -0.0847,0.7658 -0.0555,0.2907 -0.1307,0.5597 -0.2229,0.809 -0.0932,0.2493 -0.1919,0.4506 -0.2964,0.6059 -0.1044,0.1561 -0.2267,0.2925 -0.3668,0.4111 -0.1393,0.1185 -0.2813,0.205 -0.4243,0.2605 -0.143,0.0546 -0.2982,0.0828 -0.4657,0.0828 -0.3311,0 -0.5757,-0.0997 -0.7356,-0.2991 -0.1599,-0.1995 -0.2399,-0.5033 -0.2399,-0.9107zm2.3368 -1.031c0.0536,-0.3274 0.0799,-0.5823 0.0799,-0.7667 0,-0.301 -0.0517,-0.5249 -0.1571,-0.6717 -0.1044,-0.1477 -0.2474,-0.2211 -0.4299,-0.2211 -0.2719,0 -0.5259,0.1562 -0.7629,0.4685 -0.2371,0.3124 -0.4074,0.7093 -0.5099,1.191l1.7799 0zm-1.8128 0.1816c-0.0405,0.2521 -0.0659,0.4308 -0.0753,0.5381 -0.0084,0.1063 -0.0132,0.2022 -0.0132,0.2888 0,0.3509 0.048,0.6171 0.143,0.7996 0.096,0.1816 0.2559,0.2728 0.4798,0.2728 0.206,0 0.3791,-0.0649 0.5212,-0.1947 0.1411,-0.1289 0.2766,-0.3443 0.4064,-0.6463 0.1289,-0.301 0.2361,-0.6538 0.3208,-1.0583l-1.7827 0z"/>
   <path id="1" class="fil5" d="M116.7 51.699l0.0329 0.0517 -0.016 0.0358c-0.0997,0.0828 -0.2145,0.1655 -0.3443,0.2483 -0.1308,0.0828 -0.2493,0.1242 -0.3556,0.1242 -0.1439,0 -0.253,-0.0677 -0.3283,-0.2041 -0.0753,-0.1364 -0.1129,-0.2992 -0.1129,-0.4902 0,-0.2342 0.0414,-0.4957 0.1251,-0.7873 0.0837,-0.2907 0.2202,-0.588 0.4092,-0.8919l-1.3725 0c-0.1665,0.9041 -0.3349,1.6435 -0.5042,2.2192 -0.0932,0.0602 -0.2004,0.1044 -0.3199,0.1317l-0.0461 -0.0489c0.0838,-0.1881 0.1524,-0.3481 0.2032,-0.4826 0.0518,-0.1345 0.1063,-0.2935 0.1628,-0.4769 0.0574,-0.1835 0.1176,-0.3951 0.1825,-0.6341l0.19 -0.7084 -0.1326 0c-0.1731,0 -0.3011,0.0141 -0.3848,0.0414 -0.0837,0.0283 -0.1533,0.0687 -0.2088,0.1233 -0.0565,0.0536 -0.1214,0.1392 -0.1948,0.2549l-0.0414 0.016 -0.0442 -0.0273 -0.0056 -0.0414c0.127,-0.3471 0.2154,-0.5531 0.2653,-0.6171 0.0489,-0.0649 0.1401,-0.0969 0.2728,-0.0969l1.2455 0.0198c0.4102,0 0.8758,-0.0085 1.397,-0.0254 -0.0442,0.1514 -0.0687,0.2455 -0.0743,0.2841l-0.3528 0.0686c-0.2531,0.4375 -0.3801,0.8871 -0.3801,1.3481 0,0.206 0.0273,0.3735 0.0828,0.5042 0.0546,0.1308 0.144,0.1957 0.2672,0.1957 0.0461,0 0.0903,-0.0075 0.1326,-0.0235 0.0424,-0.0151 0.1129,-0.0546 0.2117,-0.1167l0.0386 0.0057z"/>
   <path id="12" class="fil5" d="M105.296 53.3349l0.0198 0.0607 -0.0621 0.151c-0.285,0.2032 -0.6152,0.3062 -0.992,0.3062 -0.2752,0 -0.508,-0.0522 -0.6999,-0.1566 -0.1905,-0.1044 -0.3316,-0.2512 -0.4234,-0.4403 -0.0917,-0.1891 -0.1368,-0.4134 -0.1368,-0.6731 0,-0.2159 0.0296,-0.4177 0.0874,-0.6039 0.0593,-0.1849 0.1412,-0.3472 0.2484,-0.4855 0.1072,-0.1383 0.2342,-0.2596 0.3824,-0.3654 0.1482,-0.1059 0.2978,-0.1877 0.4488,-0.2442 0.1509,-0.0564 0.3245,-0.0846 0.5235,-0.0846 0.3118,0 0.5955,0.0536 0.8537,0.1608l0.0085 0.0226c-0.041,0.12 -0.0762,0.3133 -0.103,0.5814l-0.017 0.0169 -0.0875 0 -0.0155 -0.0169c0,-0.182 -0.0028,-0.2893 -0.007,-0.3232 -0.1722,-0.1481 -0.4206,-0.2229 -0.7437,-0.2229 -0.1298,0 -0.2554,0.0155 -0.3768,0.048 -0.1227,0.031 -0.23,0.0832 -0.3245,0.1566 -0.0946,0.072 -0.1792,0.1693 -0.2526,0.2935 -0.0734,0.1242 -0.1341,0.2681 -0.1806,0.4332 -0.0466,0.1651 -0.0706,0.3486 -0.0706,0.5518 0,0.3739 0.0917,0.6561 0.2752,0.8452 0.1848,0.1877 0.4332,0.2823 0.7465,0.2823 0.3048,0 0.6053,-0.0974 0.8988,-0.2936z"/>
   <path id="123" class="fil5" d="M110.433 50.0536l-2.6566 0 0 -0.2812 2.6566 0 0 0.2812zm0 0.8373l-2.6566 0 0 -0.2813 2.6566 0 0 0.2813z"/>
   <path class="fil5" d="M59.265 12.518c0,-0.1787 0.0197,-0.4223 0.0602,-0.7309 0.0404,-0.3086 0.1176,-0.6011 0.2305,-0.8777 0.1129,-0.2766 0.253,-0.5071 0.4214,-0.6933 0.1684,-0.1854 0.3547,-0.3208 0.5579,-0.4074 0.2041,-0.0865 0.4252,-0.1298 0.6623,-0.1298 0.3226,0 0.554,0.0931 0.6942,0.2785 0.1392,0.1853 0.2098,0.4638 0.2098,0.8353 0,0.2202 -0.0282,0.4751 -0.0847,0.7658 -0.0555,0.2907 -0.1307,0.5597 -0.2229,0.809 -0.0932,0.2493 -0.1919,0.4506 -0.2964,0.6059 -0.1044,0.1561 -0.2267,0.2925 -0.3668,0.4111 -0.1393,0.1185 -0.2813,0.205 -0.4243,0.2605 -0.143,0.0546 -0.2982,0.0828 -0.4657,0.0828 -0.3311,0 -0.5757,-0.0997 -0.7356,-0.2991 -0.1599,-0.1995 -0.2399,-0.5033 -0.2399,-0.9107zm2.3368 -1.031c0.0536,-0.3274 0.0799,-0.5823 0.0799,-0.7667 0,-0.301 -0.0517,-0.5249 -0.1571,-0.6717 -0.1044,-0.1477 -0.2474,-0.2211 -0.4299,-0.2211 -0.2719,0 -0.5259,0.1562 -0.7629,0.4685 -0.2371,0.3124 -0.4074,0.7093 -0.5099,1.191l1.7799 0zm-1.8128 0.1816c-0.0405,0.2521 -0.0659,0.4308 -0.0753,0.5381 -0.0084,0.1063 -0.0132,0.2022 -0.0132,0.2888 0,0.3509 0.048,0.6171 0.143,0.7996 0.096,0.1816 0.2559,0.2728 0.4798,0.2728 0.206,0 0.3791,-0.0649 0.5212,-0.1947 0.1411,-0.1289 0.2766,-0.3443 0.4064,-0.6463 0.1289,-0.301 0.2361,-0.6538 0.3208,-1.0583l-1.7827 0z"/>
   <path id="1" class="fil5" d="M86.1545 13.265l0.0329 0.0517 -0.016 0.0358c-0.0997,0.0828 -0.2145,0.1655 -0.3443,0.2483 -0.1308,0.0828 -0.2493,0.1242 -0.3556,0.1242 -0.1439,0 -0.253,-0.0677 -0.3283,-0.2041 -0.0753,-0.1364 -0.1129,-0.2992 -0.1129,-0.4902 0,-0.2342 0.0414,-0.4957 0.1251,-0.7873 0.0837,-0.2907 0.2202,-0.588 0.4092,-0.8919l-1.3725 0c-0.1665,0.9041 -0.3349,1.6435 -0.5042,2.2192 -0.0932,0.0602 -0.2004,0.1044 -0.3199,0.1317l-0.0461 -0.0489c0.0838,-0.1881 0.1524,-0.3481 0.2032,-0.4826 0.0518,-0.1345 0.1063,-0.2935 0.1628,-0.4769 0.0574,-0.1835 0.1176,-0.3951 0.1825,-0.6341l0.19 -0.7084 -0.1326 0c-0.1731,0 -0.3011,0.0141 -0.3848,0.0414 -0.0837,0.0283 -0.1533,0.0687 -0.2088,0.1233 -0.0565,0.0536 -0.1214,0.1392 -0.1948,0.2549l-0.0414 0.016 -0.0442 -0.0273 -0.0056 -0.0414c0.127,-0.3471 0.2154,-0.5531 0.2653,-0.6171 0.0489,-0.0649 0.1401,-0.0969 0.2728,-0.0969l1.2455 0.0198c0.4102,0 0.8758,-0.0085 1.397,-0.0254 -0.0442,0.1514 -0.0687,0.2455 -0.0743,0.2841l-0.3528 0.0686c-0.2531,0.4375 -0.3801,0.8871 -0.3801,1.3481 0,0.206 0.0273,0.3735 0.0828,0.5042 0.0546,0.1308 0.144,0.1957 0.2672,0.1957 0.0461,0 0.0903,-0.0075 0.1326,-0.0235 0.0424,-0.0151 0.1129,-0.0546 0.2117,-0.1167l0.0386 0.0057z"/>
   <path id="12" class="fil5" d="M64.8727 14.9009l0.0198 0.0607 -0.0621 0.151c-0.285,0.2032 -0.6152,0.3062 -0.992,0.3062 -0.2752,0 -0.508,-0.0522 -0.6999,-0.1566 -0.1905,-0.1044 -0.3316,-0.2512 -0.4234,-0.4403 -0.0917,-0.1891 -0.1368,-0.4134 -0.1368,-0.6731 0,-0.2159 0.0296,-0.4177 0.0874,-0.6039 0.0593,-0.1849 0.1412,-0.3472 0.2484,-0.4855 0.1072,-0.1383 0.2342,-0.2596 0.3824,-0.3654 0.1482,-0.1059 0.2978,-0.1877 0.4488,-0.2442 0.1509,-0.0564 0.3245,-0.0846 0.5235,-0.0846 0.3118,0 0.5955,0.0536 0.8537,0.1608l0.0085 0.0226c-0.041,0.12 -0.0762,0.3133 -0.103,0.5814l-0.017 0.0169 -0.0875 0 -0.0155 -0.0169c0,-0.182 -0.0028,-0.2893 -0.007,-0.3232 -0.1722,-0.1481 -0.4206,-0.2229 -0.7437,-0.2229 -0.1298,0 -0.2554,0.0155 -0.3768,0.048 -0.1227,0.031 -0.23,0.0832 -0.3245,0.1566 -0.0946,0.072 -0.1792,0.1693 -0.2526,0.2935 -0.0734,0.1242 -0.1341,0.2681 -0.1806,0.4332 -0.0466,0.1651 -0.0706,0.3486 -0.0706,0.5518 0,0.3739 0.0917,0.6561 0.2752,0.8452 0.1848,0.1877 0.4332,0.2823 0.7465,0.2823 0.3048,0 0.6053,-0.0974 0.8988,-0.2936z"/>
   <path id="123" class="fil5" d="M70.0096 11.6196l-2.6566 0 0 -0.2812 2.6566 0 0 0.2812zm0 0.8373l-2.6566 0 0 -0.2813 2.6566 0 0 0.2813z"/>
   <path id="1234" class="fil5" d="M71.6747 11.9555c0,-0.3274 0.016,-0.6218 0.0489,-0.8834 0.0339,-0.2615 0.1063,-0.4948 0.2192,-0.6999 0.1129,-0.205 0.255,-0.3584 0.4243,-0.46 0.1703,-0.1025 0.3641,-0.1533 0.5804,-0.1533 0.2465,0 0.4629,0.063 0.6491,0.19 0.1863,0.127 0.3208,0.3217 0.4027,0.5842 0.0818,0.2634 0.1223,0.6199 0.1223,1.0724 0,0.7347 -0.112,1.2757 -0.3378,1.6228 -0.2248,0.3481 -0.5362,0.5212 -0.9351,0.5212 -0.2003,0 -0.3772,-0.0433 -0.5305,-0.1299 -0.1534,-0.0856 -0.2794,-0.2107 -0.3782,-0.3744 -0.0978,-0.1637 -0.1665,-0.3565 -0.206,-0.5785 -0.0395,-0.223 -0.0593,-0.4591 -0.0593,-0.7112zm0.4741 -0.1599c0,0.349 0.0254,0.6669 0.0781,0.9539 0.0527,0.2859 0.1393,0.4929 0.2615,0.618 0.1223,0.1261 0.2682,0.1891 0.4375,0.1891 0.1637,0 0.3001,-0.0555 0.4092,-0.1684 0.1091,-0.1119 0.1891,-0.3038 0.2399,-0.5757 0.0499,-0.2719 0.0753,-0.6077 0.0753,-1.0085 0,-0.6284 -0.0593,-1.0931 -0.1788,-1.3951 -0.1195,-0.301 -0.317,-0.4515 -0.5926,-0.4515 -0.2409,0 -0.4224,0.1166 -0.5457,0.3499 -0.1232,0.2333 -0.1844,0.7291 -0.1844,1.4883z"/>
   <path id="12345" class="fil5" d="M74.2871 14.4334c0.1139,-0.1891 0.1957,-0.3321 0.2456,-0.4271 0.0489,-0.096 0.0931,-0.1966 0.1307,-0.302 0.0377,-0.1054 0.0621,-0.1872 0.0743,-0.2436 0.0123,-0.0574 0.0292,-0.175 0.0508,-0.3528 0.0094,-0.0038 0.0612,-0.0169 0.1543,-0.0386 0.1289,-0.032 0.2653,-0.0743 0.4083,-0.127l0.0687 0.0772c-0.2333,0.5418 -0.5099,1 -0.8298,1.3753l-0.2342 0.1073 -0.0687 -0.0687z"/>
   <path id="123456" class="fil5" d="M76.1582 10.5246l-0.0489 -0.016 -0.0282 -0.2257 0.0282 -0.0283c0.1835,-0.0526 0.4158,-0.1382 0.6971,-0.2558 0.2813,-0.1176 0.4817,-0.2079 0.603,-0.27l0.0725 0.0273c-0.0301,0.8052 -0.0443,1.2878 -0.0443,1.4496l0 1.0226c0,0.2521 0.0029,0.4882 0.0076,0.7093 0.0056,0.222 0.0141,0.3518 0.0254,0.3914 0.0113,0.0395 0.0301,0.0705 0.0564,0.0931 0.0264,0.0216 0.064,0.0357 0.111,0.0423 0.048,0.0066 0.191,0.016 0.4281,0.0292l0.0188 0.0216 0 0.1242 -0.0188 0.0216c-0.4027,-0.0141 -0.6868,-0.0216 -0.8523,-0.0216 -0.1242,0 -0.4309,0.0075 -0.9173,0.0216l-0.0197 -0.0216 0 -0.1242 0.0226 -0.0216c0.2756,-0.0207 0.4327,-0.0348 0.4722,-0.0442 0.0395,-0.0094 0.0696,-0.0254 0.0913,-0.048 0.0207,-0.0235 0.0376,-0.0668 0.0508,-0.1317 0.0131,-0.064 0.0235,-0.254 0.0319,-0.5701 0.0076,-0.3161 0.0123,-0.4779 0.0123,-0.4854l0 -1.0856c0,-0.5325 -0.0019,-0.8222 -0.0047,-0.8683 -0.0019,-0.0461 -0.0188,-0.0687 -0.048,-0.0687 -0.0075,0 -0.0169,0.0019 -0.0301,0.0057 -0.0132,0.0037 -0.0536,0.0197 -0.1214,0.0498l-0.2728 0.1204c-0.1138,0.0499 -0.2211,0.1026 -0.3227,0.1571z"/>
   <path id="1234567" class="fil5" d="M78.9315 13.661l-0.0583 -0.0573c0.0659,-0.0998 0.2032,-0.3124 0.4111,-0.6397l0.5042 -0.8044 0.4742 -0.7742 0.413 -0.7112c0.0884,-0.1543 0.158,-0.2794 0.2097,-0.3753l-0.0282 -0.0273 -0.8542 0c-0.2145,0 -0.4054,0.0037 -0.5729,0.0113 -0.1674,0.0065 -0.2653,0.0178 -0.2954,0.031 -0.0291,0.0141 -0.0498,0.0311 -0.0621,0.0517 -0.0112,0.0198 -0.0244,0.0894 -0.0395,0.2089l-0.0498 0.3885 -0.0245 0.0226 -0.1157 0 -0.0254 -0.0226 0.0141 -0.7545c0,-0.0865 -0.0047,-0.2201 -0.0141,-0.3998l0.0555 -0.0282c0.1007,0.0113 0.3067,0.0235 0.6162,0.0367 0.3095,0.0122 0.5164,0.0188 0.6209,0.0188 0.3734,0 0.7808,-0.0132 1.221,-0.0386l0.0226 0.0217 0 0.1439 -0.397 0.7027c-0.2408,0.43 -0.5155,0.9389 -0.8241,1.5278 -0.3085,0.5889 -0.5343,1.0715 -0.6754,1.4459l-0.0273 0.0216c-0.1053,-0.0084 -0.1844,-0.0131 -0.237,-0.0131 -0.0847,0 -0.1722,0.0047 -0.2616,0.0131z"/>
  </g>
 </g>
</svg>
