<svg
    xmlns="http://www.w3.org/2000/svg"
    version="1.1"
    xmlns:xlink="http://www.w3.org/1999/xlink"
    style="font-size: 10pt; overflow: visible;"
    viewBox="175.07101440429688 -379.9530029296875 137.22802734375 117.385986328125"
>
    <defs>
        <symbol id="path_american-resistor">
            <g
                fill="none"
                stroke="currentStroke"
                stroke-miterlimit="10"
                stroke-width=".4"
            >
                <path
                    stroke-linejoin="bevel"
                    stroke-width="1.06267"
                    d="m.53136 8.46838 4.05887-7.93703 7.05509 15.87407 7.05509-15.87407 7.05507 15.87407 7.05509-15.87407 7.05509 15.87407 4.05887-7.93704"
                />
            </g>
        </symbol>
        <symbol id="node_vcc">
            <g
                fill="none"
                stroke="currentStroke"
                stroke-miterlimit="10"
                stroke-width=".4"
            >
                <g stroke-width=".79999">
                    <path
                        stroke-width="1.06267"
                        d="m.53137 12.96463 5.29122-7.4077 5.29122 7.4077"
                    />
                    <path
                        stroke-width=".53134"
                        d="M5.82259 21.43062v-15.8737"
                    />
                </g>
            </g>
        </symbol>
        <symbol id="node_pground">
            <g
                fill="none"
                stroke="currentStroke"
                stroke-miterlimit="10"
                stroke-width=".4"
            >
                <g stroke-width=".79999">
                    <path
                        stroke-width="1.06267"
                        d="M24.34209 12.43671c0-6.57523-5.33013-11.90536-11.90537-11.90536s-11.90536 5.33013-11.90536 11.90536 5.33013 11.90537 11.90536 11.90537 11.90537-5.33013 11.90537-11.90537Zm-11.90537 0"
                    />
                    <g stroke-width=".4">
                        <path
                            stroke-width=".53134"
                            d="M12.43672.53135v13.22828"
                        />
                        <path
                            stroke-width="1.06267"
                            d="M4.49969 13.75963h15.87406m-13.22825 2.64561h10.58244m-8.59828 2.64563h6.61412"
                        />
                    </g>
                </g>
            </g>
        </symbol>
    </defs>
    <g>
        <polyline
            points="-56.69300000000001,-18.898000000000025 56.69300000000001,-18.898000000000025 56.69300000000001,18.897999999999968"
            fill="none"
            stroke-dasharray="0.4pt 0pt"
            stroke-opacity="1"
            stroke-width="0.5333333333333333"
            stroke="#000"
            transform="matrix(1,0,0,1,245.669,-359.05499999999995)"
        />
    </g>
    <g>
        <polyline
            points="0,-18.892499999999984 0,18.892499999999984"
            fill="none"
            stroke-dasharray="0.4pt 0pt"
            stroke-opacity="1"
            stroke-width="0.5333333333333333"
            stroke="#000"
            transform="matrix(1,0,0,1,264.567,-359.0605)"
        />
    </g>
    <g>
        <polyline
            points="0,-18.898000000000025 0,18.897999999999968"
            fill="none"
            stroke-dasharray="0.4pt 0pt"
            stroke-opacity="1"
            stroke-width="0.5333333333333333"
            stroke="#000"
            transform="matrix(1,0,0,1,188.976,-359.05499999999995)"
        />
    </g>
    <g style="">
        <use
            xlink:href="#path_american-resistor"
            fill="#fff"
            stroke="#000"
            transform="matrix(6.123233995736766e-17,1,-1,6.123233995736766e-17,273.03538000000003,-343.493)"
            style="color: #000;"
            class="draggable"
        />
        <line
            x1="264.567"
            y1="-340.168"
            x2="264.567"
            y2="-342.43031"
            fill="none"
            stroke-width="0.5"
            stroke="#000"
        />
        <line
            x1="264.567"
            y1="-302.362"
            x2="264.567"
            y2="-300.09968"
            fill="none"
            stroke-width="0.5"
            stroke="#000"
        />
    </g>
    <g style="">
        <use
            xlink:href="#path_american-resistor"
            fill="#fff"
            stroke="#000"
            style="color: #000;"
            transform="matrix(6.123233995736766e-17,1,-1,6.123233995736766e-17,310.83038000000005,-343.4875)"
            class="draggable"
        />
        <line
            x1="302.362"
            y1="-340.157"
            x2="302.362"
            y2="-342.42481000000004"
            fill="none"
            stroke-width="0.5"
            stroke="#000"
        />
        <line
            x1="302.362"
            y1="-302.362"
            x2="302.362"
            y2="-300.09418"
            fill="none"
            stroke-width="0.5"
            stroke="#000"
        />
    </g>
    <g>
        <polyline
            points="56.69300000000001,-18.89749999999998 56.69300000000001,18.897500000000036 -56.69300000000001,18.897500000000036 -56.69300000000001,-18.89749999999998"
            fill="none"
            stroke-dasharray="0.4pt 0pt"
            stroke-opacity="1"
            stroke-width="0.5333333333333333"
            stroke="#000"
            transform="matrix(1,0,0,1,245.669,-283.46450000000004)"
        />
    </g>
    <g>
        <polyline
            points="0,-18.89749999999998 0,18.897500000000036"
            fill="none"
            stroke-dasharray="0.4pt 0pt"
            stroke-opacity="1"
            stroke-width="0.5333333333333333"
            stroke="#000"
            transform="matrix(1,0,0,1,264.567,-283.46450000000004)"
        />
    </g>
    <g class="draggable">
        <use
            xlink:href="#node_vcc"
            fill="#fff"
            stroke="#000"
            transform="matrix(1,0,0,1,183.15341,-371.03661999999997)"
            style="color: #000;"
        />
    </g>
    <g class="draggable">
        <use
            xlink:href="#node_pground"
            fill="#fff"
            stroke="#000"
            transform="matrix(1,0,0,1,176.53965795275587,-340.68883031496057)"
            style="color: #000;"
        />
    </g>
    <g>
        <polyline
            points="9.448818897637778,9.448818897637807 9.448818897637778,0 9.448818897637778,-9.448818897637807"
            fill="none"
            stroke-dasharray="0.4pt 0pt"
            stroke-opacity="1"
            stroke-width="0.5333333333333333"
            stroke="#000"
            transform="matrix(1,0,0,1,179.5275590551181,-311.81102362204723)"
        />
    </g>
</svg>

