<svg xmlns="http://www.w3.org/2000/svg" xmlns:xlink="http://www.w3.org/1999/xlink" version="1.1" style="font-size:10pt;overflow:visible" viewBox="175.071 -379.953 137.228 117.386"><defs><symbol id="path_american-resistor"><g fill="none" stroke="currentStroke" stroke-miterlimit="10" stroke-width=".4"><path stroke-linejoin="bevel" stroke-width="1.063" d="m.53136 8.46838 4.05887-7.93703 7.05509 15.87407 7.05509-15.87407 7.05507 15.87407 7.05509-15.87407 7.05509 15.87407 4.05887-7.93704"/></g></symbol><symbol id="node_vcc"><g fill="none" stroke="currentStroke" stroke-miterlimit="10" stroke-width=".4"><g stroke-width=".8"><path stroke-width="1.063" d="m.53137 12.96463 5.29122-7.4077 5.29122 7.4077"/><path stroke-width=".531" d="M5.82259 21.43062v-15.8737"/></g></g></symbol><symbol id="node_pground"><g fill="none" stroke="currentStroke" stroke-miterlimit="10" stroke-width=".4"><g stroke-width=".8"><path stroke-width="1.063" d="M24.34209 12.43671c0-6.57523-5.33013-11.90536-11.90537-11.90536s-11.90536 5.33013-11.90536 11.90536 5.33013 11.90537 11.90536 11.90537 11.90537-5.33013 11.90537-11.90537Zm-11.90537 0"/><g stroke-width=".4"><path stroke-width=".531" d="M12.43672.53135v13.22828"/><path stroke-width="1.063" d="M4.49969 13.75963h15.87406m-13.22825 2.64561h10.58244m-8.59828 2.64563h6.61412"/></g></g></g></symbol></defs><g><polyline fill="none" stroke="#000" stroke-dasharray=".4pt 0" stroke-opacity="1" stroke-width=".533" points="-56.693 -18.898 56.693 -18.898 56.693 18.898" transform="matrix(1,0,0,1,245.669,-359.05499999999995)"/></g><g><polyline fill="none" stroke="#000" stroke-dasharray=".4pt 0" stroke-opacity="1" stroke-width=".533" points="0 -18.892 0 18.892" transform="matrix(1,0,0,1,264.567,-359.0605)"/></g><g><polyline fill="none" stroke="#000" stroke-dasharray=".4pt 0" stroke-opacity="1" stroke-width=".533" points="0 -18.898 0 18.898" transform="matrix(1,0,0,1,188.976,-359.05499999999995)"/></g><g><use fill="#fff" stroke="#000" class="draggable" transform="matrix(6.123233995736766e-17,1,-1,6.123233995736766e-17,273.03538000000003,-343.493)" xlink:href="#path_american-resistor" style="color:#000"/><line x1="264.567" x2="264.567" y1="-340.168" y2="-342.43" fill="none" stroke="#000" stroke-width=".5"/><line x1="264.567" x2="264.567" y1="-302.362" y2="-300.1" fill="none" stroke="#000" stroke-width=".5"/></g><g><use fill="#fff" stroke="#000" class="draggable" transform="matrix(6.123233995736766e-17,1,-1,6.123233995736766e-17,310.83038000000005,-343.4875)" xlink:href="#path_american-resistor" style="color:#000"/><line x1="302.362" x2="302.362" y1="-340.157" y2="-342.425" fill="none" stroke="#000" stroke-width=".5"/><line x1="302.362" x2="302.362" y1="-302.362" y2="-300.094" fill="none" stroke="#000" stroke-width=".5"/></g><g><polyline fill="none" stroke="#000" stroke-dasharray=".4pt 0" stroke-opacity="1" stroke-width=".533" points="56.693 -18.897 56.693 18.898 -56.693 18.898 -56.693 -18.897" transform="matrix(1,0,0,1,245.669,-283.46450000000004)"/></g><g><polyline fill="none" stroke="#000" stroke-dasharray=".4pt 0" stroke-opacity="1" stroke-width=".533" points="0 -18.897 0 18.898" transform="matrix(1,0,0,1,264.567,-283.46450000000004)"/></g><g class="draggable"><use fill="#fff" stroke="#000" transform="matrix(1,0,0,1,183.15341,-371.03661999999997)" xlink:href="#node_vcc" style="color:#000"/></g><g class="draggable"><use fill="#fff" stroke="#000" transform="matrix(1,0,0,1,176.53965795275587,-340.68883031496057)" xlink:href="#node_pground" style="color:#000"/></g><g><polyline fill="none" stroke="#000" stroke-dasharray=".4pt 0" stroke-opacity="1" stroke-width=".533" points="9.449 9.449 9.449 0 9.449 -9.449" transform="matrix(1,0,0,1,179.5275590551181,-311.81102362204723)"/></g></svg>